<?xml version="1.0" encoding="UTF-8" standalone="no"?>
<!-- Created with Inkscape (http://www.inkscape.org/) -->
<svg xmlns:rdf="http://www.w3.org/1999/02/22-rdf-syntax-ns#" xmlns="http://www.w3.org/2000/svg" xmlns:cc="http://web.resource.org/cc/" xmlns:dc="http://purl.org/dc/elements/1.1/" xmlns:svg="http://www.w3.org/2000/svg" xmlns:inkscape="http://www.inkscape.org/namespaces/inkscape" xmlns:sodipodi="http://sodipodi.sourceforge.net/DTD/sodipodi-0.dtd" xmlns:ns1="http://sozi.baierouge.fr" xmlns:xlink="http://www.w3.org/1999/xlink" id="svg2" viewBox="0 0 720 720" version="1.1" inkscape:version="0.91 r13725">
  <path id="path2983" style="stroke:#ff0000;stroke-width:2;display:none;fill:none" d="m329.69 144.95s-9.3692-18.562-37.653-6.364"/>
  <path id="path2872" style="fill:#ffffff" d="m354.2 196.92 105.04 28.147 76.898 76.898 28.147 105.04-28.147 105.04-76.898 76.898-105.04 28.147-105.04-28.147-76.898-76.898-28.147-105.04 28.147-105.04 76.898-76.898 105.04-28.147z" transform="matrix(1.2852 0 0 1.2852 -95.213 -163.08)"/>
  <path id="path2839" style="fill:#ff0000" d="m394.13 311.06a83.077 83.077 0 1 1 -166.15 0 83.077 83.077 0 1 1 166.15 0z" transform="matrix(.72222 0 0 .72222 135.35 -134.65)"/>
  <path id="path2896" style="fill:#ff8000" d="m394.13 311.06a83.077 83.077 0 1 1 -166.15 0 83.077 83.077 0 1 1 166.15 0z" transform="matrix(.72222 0 0 .72222 270.35 -98.478)"/>
  <path id="path2898" style="fill:#ffff00" d="m394.13 311.06a83.077 83.077 0 1 1 -166.15 0 83.077 83.077 0 1 1 166.15 0z" transform="matrix(.72222 0 0 .72222 369.18 .34883)"/>
  <path id="path2900" style="fill:#80ff00" d="m394.13 311.06a83.077 83.077 0 1 1 -166.15 0 83.077 83.077 0 1 1 166.15 0z" transform="matrix(.72222 0 0 .72222 405.35 135.35)"/>
  <path id="path2902" style="fill:#00ff00" d="m394.13 311.06a83.077 83.077 0 1 1 -166.15 0 83.077 83.077 0 1 1 166.15 0z" transform="matrix(.72222 0 0 .72222 369.18 270.35)"/>
  <path id="path2904" style="fill:#00ff80" d="m394.13 311.06a83.077 83.077 0 1 1 -166.15 0 83.077 83.077 0 1 1 166.15 0z" transform="matrix(.72222 0 0 .72222 270.35 369.18)"/>
  <path id="path2906" style="fill:#00ffff" d="m394.13 311.06a83.077 83.077 0 1 1 -166.15 0 83.077 83.077 0 1 1 166.15 0z" transform="matrix(.72222 0 0 .72222 135.35 405.35)"/>
  <path id="path2908" style="fill:#0080ff" d="m394.13 311.06a83.077 83.077 0 1 1 -166.15 0 83.077 83.077 0 1 1 166.15 0z" transform="matrix(.72222 0 0 .72222 .34883 369.18)"/>
  <path id="path2910" style="fill:#0000ff" d="m394.13 311.06a83.077 83.077 0 1 1 -166.15 0 83.077 83.077 0 1 1 166.15 0z" transform="matrix(.72222 0 0 .72222 -98.478 270.35)"/>
  <path id="path2912" style="fill:#8000ff" d="m394.13 311.06a83.077 83.077 0 1 1 -166.15 0 83.077 83.077 0 1 1 166.15 0z" transform="matrix(.72222 0 0 .72222 -134.65 135.35)"/>
  <path id="path2914" style="fill:#ff00ff" d="m394.13 311.06a83.077 83.077 0 1 1 -166.15 0 83.077 83.077 0 1 1 166.15 0z" transform="matrix(.72222 0 0 .72222 -98.478 .34883)"/>
  <path id="path2916" style="fill:#ff0080" d="m394.13 311.06a83.077 83.077 0 1 1 -166.15 0 83.077 83.077 0 1 1 166.15 0z" transform="matrix(.72222 0 0 .72222 .34883 -98.478)"/>
  <metadata>
    <rdf:RDF>
      <cc:Work>
        <dc:format>image/svg+xml</dc:format>
        <dc:type rdf:resource="http://purl.org/dc/dcmitype/StillImage"/>
        <cc:license rdf:resource="http://creativecommons.org/licenses/publicdomain/"/>
        <dc:publisher>
          <cc:Agent rdf:about="http://openclipart.org/">
            <dc:title>Openclipart</dc:title>
          </cc:Agent>
        </dc:publisher>
        <dc:title>12 color circles</dc:title>
        <dc:date>2011-07-08T19:55:42</dc:date>
        <dc:description>12 color circles</dc:description>
        <dc:source>https://openclipart.org/detail/148747/12-color-circles-by-10binary</dc:source>
        <dc:creator>
          <cc:Agent>
            <dc:title>10binary</dc:title>
          </cc:Agent>
        </dc:creator>
        <dc:subject>
          <rdf:Bag>
            <rdf:li>12</rdf:li>
            <rdf:li>circles</rdf:li>
            <rdf:li>color</rdf:li>
          </rdf:Bag>
        </dc:subject>
      </cc:Work>
      <cc:License rdf:about="http://creativecommons.org/licenses/publicdomain/">
        <cc:permits rdf:resource="http://creativecommons.org/ns#Reproduction"/>
        <cc:permits rdf:resource="http://creativecommons.org/ns#Distribution"/>
        <cc:permits rdf:resource="http://creativecommons.org/ns#DerivativeWorks"/>
      </cc:License>
    </rdf:RDF>
  </metadata>
</svg>
