<svg width="72" height="76" viewBox="0 0 72 76" fill="none" xmlns="http://www.w3.org/2000/svg">
<path d="M34.3818 20.278C33.9418 20.278 33.5678 20.146 33.2598 19.882C32.9958 19.574 32.8638 19.2 32.8638 18.76V15.196C32.8638 14.756 32.9958 14.382 33.2598 14.074C33.5678 13.766 33.9418 13.612 34.3818 13.612H38.5398C38.9798 13.612 39.3538 13.766 39.6618 14.074C39.9698 14.382 40.1238 14.756 40.1238 15.196V18.76C40.1238 19.2 39.9698 19.574 39.6618 19.882C39.3538 20.146 38.9798 20.278 38.5398 20.278H34.3818ZM34.9098 61C34.4698 61 34.0958 60.868 33.7878 60.604C33.5238 60.296 33.3918 59.922 33.3918 59.482V28.198C33.3918 27.758 33.5238 27.406 33.7878 27.142C34.0958 26.834 34.4698 26.68 34.9098 26.68H38.0778C38.5178 26.68 38.8698 26.834 39.1338 27.142C39.4418 27.406 39.5958 27.758 39.5958 28.198V59.482C39.5958 59.922 39.4418 60.296 39.1338 60.604C38.8698 60.868 38.5178 61 38.0778 61H34.9098Z" fill="white"/>
<circle cx="36" cy="36" r="33" stroke="white" stroke-width="6"/>
</svg>
