<svg width="65" height="65" viewBox="0 0 65 65" fill="none" xmlns="http://www.w3.org/2000/svg">
<path d="M10.8334 15.8537C10.8334 14.1025 12.253 12.6829 14.0041 12.6829H50.996C52.7471 12.6829 54.1667 14.1025 54.1667 15.8537V15.8537C54.1667 17.6048 52.7471 19.0244 50.996 19.0244H14.0041C12.253 19.0244 10.8334 17.6048 10.8334 15.8537V15.8537Z" fill="white"/>
<path d="M16.25 3.17073C16.25 1.41959 17.6696 0 19.4207 0H45.5793C47.3304 0 48.75 1.41959 48.75 3.17073V3.17073C48.75 4.92188 47.3304 6.34146 45.5793 6.34146H19.4207C17.6696 6.34146 16.25 4.92188 16.25 3.17073V3.17073Z" fill="white"/>
<rect y="25.0488" width="65" height="39.9512" rx="9" fill="white"/>
<rect x="5.6875" y="31.9583" width="52.8125" height="3.25" rx="1.625" fill="#DCDCDC"/>
</svg>
