<svg width="83" height="75" viewBox="0 0 83 75" fill="none" xmlns="http://www.w3.org/2000/svg">
<rect x="35" y="44.2313" width="33" height="8.84506" transform="rotate(-47.2467 35 44.2313)" fill="white"/>
<path d="M29.8357 55.3057L34.1096 47L38.5153 51.0731L30.9371 56.3239L29.8357 55.3057Z" fill="white"/>
<rect x="57.5752" y="10.213" width="22.3763" height="4.35213" rx="2.17607" transform="rotate(43.5902 57.5752 10.213)" fill="white"/>
<path d="M80.135 3.39421C81.3516 4.51895 81.4261 6.41699 80.3014 7.63359L70.1187 18.6478L64.2444 13.2171L74.4271 2.20284C75.5518 0.986244 77.4499 0.91178 78.6665 2.03652L80.135 3.39421Z" fill="white"/>
<path d="M42.5 26H12C7.02944 26 3 30.0294 3 35V63C3 67.9706 7.02944 72 12 72H55C59.9706 72 64 67.9706 64 63V45" stroke="white" stroke-width="5"/>
</svg>
