<svg width="80" height="65" viewBox="0 0 80 65" fill="none" xmlns="http://www.w3.org/2000/svg">
<path d="M65 9.23077H59.0769L55.0646 2.15077C54.3692 0.923077 52.8615 0 50.7692 0H29.2308C27.0492 0 25.6338 0.923077 24.9354 2.15077L20.9231 9.23077H15C13.0301 9.23037 11.0793 9.61808 9.25927 10.3718C7.4392 11.1254 5.78546 12.2303 4.3925 13.6233C2.99954 15.0162 1.89466 16.67 1.14098 18.49C0.387307 20.3101 -0.000403899 22.2608 3.1574e-07 24.2308L3.1574e-07 49.6154C-0.000403899 51.5853 0.387307 53.5361 1.14098 55.3561C1.89466 57.1762 2.99954 58.8299 4.3925 60.2229C5.78546 61.6159 7.4392 62.7207 9.25927 63.4744C11.0793 64.2281 13.0301 64.6158 15 64.6154H65C66.9699 64.6158 68.9207 64.2281 70.7407 63.4744C72.5608 62.7207 74.2145 61.6159 75.6075 60.2229C77.0005 58.8299 78.1053 57.1762 78.859 55.3561C79.6127 53.5361 80.0004 51.5853 80 49.6154V24.2308C80.0004 22.2608 79.6127 20.3101 78.859 18.49C78.1053 16.67 77.0005 15.0162 75.6075 13.6233C74.2145 12.2303 72.5608 11.1254 70.7407 10.3718C68.9207 9.61808 66.9699 9.23037 65 9.23077V9.23077ZM40 58.4615C34.2876 58.4615 28.8093 56.1923 24.77 52.1531C20.7308 48.1138 18.4615 42.6354 18.4615 36.9231H12.3077L21.5385 24.6154L30.7692 36.9231H24.6154C24.6154 45.4062 31.5169 52.3077 40 52.3077C43.9015 52.3077 47.4308 50.8 50.1446 48.3969L53.88 53.3785C50.0021 56.6646 45.0829 58.4661 40 58.4615ZM58.4615 49.2308L49.2308 36.9231H55.3846C55.3846 28.44 48.4831 21.5385 40 21.5385C36.0985 21.5385 32.5692 23.0462 29.8554 25.4492L26.12 20.4677C29.9979 17.1816 34.9171 15.3801 40 15.3846C45.7124 15.3846 51.1907 17.6538 55.23 21.6931C59.2692 25.7323 61.5385 31.2107 61.5385 36.9231H67.6923L58.4615 49.2308Z" fill="white"/>
</svg>
