<svg width="20" height="20" viewBox="0 0 20 20" fill="none" xmlns="http://www.w3.org/2000/svg">
<g clip-path="url(#clip0_9:27)">
<path d="M20 15.8292L20 4.16667C19.9999 3.46464 19.8224 2.77402 19.484 2.15893C19.1457 1.54383 18.6574 1.0242 18.0645 0.64828C17.4716 0.27236 16.7933 0.0523372 16.0927 0.00864086C15.392 -0.0350554 14.6916 0.0989913 14.0566 0.398335L2.41664 6.22083C1.69824 6.55457 1.08986 7.08617 0.662805 7.75333C0.235751 8.42049 0.00772281 9.19556 0.00544887 9.98769C0.00317492 10.7798 0.226749 11.5562 0.649966 12.2258C1.07318 12.8954 1.6785 13.4305 2.39498 13.7683L14.0616 19.6017L14.0833 19.6083C14.718 19.9021 15.4165 20.0313 16.1143 19.9842C16.8121 19.937 17.4868 19.7149 18.0762 19.3385C18.6656 18.962 19.1508 18.4432 19.487 17.8299C19.8232 17.2166 19.9996 16.5286 20 15.8292V15.8292ZM18.3333 12.9958L13.8016 10.7317C13.6613 10.6679 13.5424 10.5649 13.4592 10.4351C13.3761 10.3053 13.3324 10.1542 13.3333 10C13.3334 9.84167 13.3799 9.68682 13.4669 9.55458C13.554 9.42234 13.6779 9.31848 13.8233 9.25583L18.3333 7L18.3333 12.9958ZM14.79 18.1017L3.11331 12.2683C2.67923 12.0667 2.31214 11.7447 2.05568 11.3406C1.79921 10.9365 1.66414 10.4672 1.66651 9.98862C1.66888 9.51 1.80859 9.04211 2.06904 8.64056C2.3295 8.239 2.69975 7.92066 3.13581 7.72333L14.78 1.9C15.1609 1.72304 15.5802 1.64489 15.9993 1.67278C16.4184 1.70067 16.8237 1.8337 17.1778 2.05958C17.5319 2.28546 17.8234 2.59691 18.0253 2.96518C18.2273 3.33345 18.3332 3.74666 18.3333 4.16667L18.3333 5.13667L13.1 7.75C12.6737 7.94784 12.3126 8.26291 12.0588 8.65837C11.805 9.05383 11.6689 9.51337 11.6666 9.98328C11.6642 10.4532 11.7956 10.9141 12.0455 11.3121C12.2953 11.71 12.6532 12.0287 13.0775 12.2308L18.3333 14.86L18.3333 15.8292C18.3334 16.2483 18.2281 16.6608 18.0271 17.0287C17.8261 17.3965 17.5358 17.7079 17.183 17.9342C16.8301 18.1605 16.426 18.2944 16.0079 18.3237C15.5897 18.353 15.1709 18.2766 14.79 18.1017V18.1017Z" fill="white"/>
</g>
<defs>
<clipPath id="clip0_9:27">
<rect width="20" height="20" fill="white" transform="translate(0 20) rotate(-90)"/>
</clipPath>
</defs>
</svg>
