<svg width="62" height="71" viewBox="0 0 62 71" fill="none" xmlns="http://www.w3.org/2000/svg">
<path d="M38.1922 44.421L43.4713 39.4835H7.91859C6.87857 39.4831 5.84866 39.6744 4.88773 40.0464C3.92679 40.4185 3.05367 40.964 2.31827 41.6518C1.58287 42.3396 0.999609 43.1563 0.601827 44.055C0.204044 44.9538 -0.000461754 45.9171 7.82844e-07 46.8898V48.7891C7.82844e-07 51.7252 1.1262 54.5692 3.16744 56.8043C8.07696 62.1829 15.2811 65.1355 24.625 65.7148C24.611 65.1125 24.6814 64.4969 24.8503 63.8682L25.6597 60.8267C17.3083 60.4317 11.2022 58.0025 7.17952 53.5982C5.95407 52.2579 5.28017 50.5526 5.27906 48.7891V46.8865C5.27906 45.527 6.46157 44.421 7.91859 44.421H38.1922ZM28.1444 0C30.4553 -3.22065e-08 32.7435 0.425707 34.8784 1.25282C37.0134 2.07992 38.9533 3.29224 40.5873 4.82053C42.2213 6.34883 43.5175 8.16318 44.4018 10.16C45.2861 12.1568 45.7413 14.297 45.7413 16.4583C45.7413 18.6197 45.2861 20.7598 44.4018 22.7567C43.5175 24.7535 42.2213 26.5678 40.5873 28.0961C38.9533 29.6244 37.0134 30.8367 34.8784 31.6638C32.7435 32.491 30.4553 32.9167 28.1444 32.9167C23.4774 32.9167 19.0016 31.1827 15.7016 28.0961C12.4015 25.0096 10.5476 20.8234 10.5476 16.4583C10.5476 12.0933 12.4015 7.90707 15.7016 4.82053C19.0016 1.734 23.4774 0 28.1444 0ZM28.1444 4.9375C26.5268 4.9375 24.9251 5.23549 23.4306 5.81447C21.9361 6.39345 20.5782 7.24206 19.4344 8.31187C18.2906 9.38168 17.3833 10.6517 16.7643 12.0495C16.1452 13.4473 15.8266 14.9454 15.8266 16.4583C15.8266 17.9713 16.1452 19.4694 16.7643 20.8672C17.3833 22.2649 18.2906 23.535 19.4344 24.6048C20.5782 25.6746 21.9361 26.5232 23.4306 27.1022C24.9251 27.6812 26.5268 27.9792 28.1444 27.9792C31.4113 27.9792 34.5444 26.7654 36.8544 24.6048C39.1645 22.4442 40.4622 19.5138 40.4622 16.4583C40.4622 13.4028 39.1645 10.4724 36.8544 8.31187C34.5444 6.1513 31.4113 4.9375 28.1444 4.9375Z" fill="white"/>
<rect x="29.1099" y="48.9002" width="31.2136" height="20" rx="4.5" stroke="white" stroke-width="3"/>
<path d="M42.2782 58.5077L33.1808 49.6597L56.2602 49.6662L47.1571 58.509C45.7984 59.829 43.6361 59.8284 42.2782 58.5077Z" fill="white" stroke="white"/>
</svg>
