<?xml version="1.0" encoding="UTF-8" standalone="no"?>
<!-- Created with Inkscape (http://www.inkscape.org/) -->

<svg
   width="136.92229mm"
   height="158.56992mm"
   viewBox="0 0 136.92229 158.56992"
   version="1.1"
   id="svg5"
   xml:space="preserve"
   xmlns:inkscape="http://www.inkscape.org/namespaces/inkscape"
   xmlns:sodipodi="http://sodipodi.sourceforge.net/DTD/sodipodi-0.dtd"
   xmlns="http://www.w3.org/2000/svg"
   xmlns:svg="http://www.w3.org/2000/svg"><sodipodi:namedview
     id="namedview7"
     pagecolor="#ffffff"
     bordercolor="#666666"
     borderopacity="1.0"
     inkscape:showpageshadow="2"
     inkscape:pageopacity="0.0"
     inkscape:pagecheckerboard="0"
     inkscape:deskcolor="#d1d1d1"
     inkscape:document-units="mm"
     showgrid="false" /><defs
     id="defs2" /><g
     inkscape:label="Layer 1"
     inkscape:groupmode="layer"
     id="layer1"
     transform="translate(-25.314347,-62.602987)"><path
       style="fill:#ffffff;stroke-width:0.309756"
       d="m 65.350684,220.72838 c -2.605631,-0.56603 -4.824352,-1.81483 -6.884401,-3.87488 -2.103795,-2.1038 -3.305258,-4.27559 -3.888814,-7.02951 -0.658449,-3.10735 -0.666775,-103.89317 -0.0088,-106.9973 0.788379,-3.719552 2.907392,-6.806612 6.107414,-8.897512 3.905117,-2.55161 0.135423,-2.36399 47.498047,-2.36399 39.85409,0 42.22269,0.0304 43.9037,0.56282 4.89875,1.55168 8.88574,6.02666 9.83661,11.040542 0.43219,2.27893 0.42832,104.01281 -0.004,106.29265 -1.08531,5.72284 -5.95274,10.5026 -11.64442,11.4347 -1.10972,0.18173 -17.70788,0.28969 -42.4016,0.2758 -32.952518,-0.0186 -40.941791,-0.10185 -42.513661,-0.44332 z m 82.550556,-64.34673 0.0784,-50.4128 H 108.17503 68.370446 v 50.28374 c 0,27.65606 0.09345,50.37719 0.207676,50.49142 0.114223,0.11422 17.991021,0.1723 39.726208,0.12906 l 39.51855,-0.0786 z M 25.314349,126.91967 c 0,-33.334852 0.109159,-51.488201 0.31617,-52.579766 1.085314,-5.72284 5.952742,-10.502599 11.644424,-11.434692 1.108654,-0.181558 18.915612,-0.299336 45.421723,-0.300427 l 43.598164,-0.0018 v 7.123311 7.123311 l -43.288408,0.07852 -43.288414,0.07852 -0.07837,50.412813 -0.07837,50.4128 h -7.123461 -7.12346 z"
       id="path179"
       inkscape:export-filename="path179.png"
       inkscape:export-xdpi="55.652004"
       inkscape:export-ydpi="55.652004" /></g></svg>
