<?xml version="1.0" encoding="UTF-8" standalone="no"?>
<!-- Created with Inkscape (http://www.inkscape.org/) -->

<svg
   width="210mm"
   height="210mm"
   viewBox="0 0 210 210"
   version="1.1"
   id="svg5"
   sodipodi:docname="CreateCard.svg"
   inkscape:version="1.1.2 (0a00cf5339, 2022-02-04)"
   xmlns:inkscape="http://www.inkscape.org/namespaces/inkscape"
   xmlns:sodipodi="http://sodipodi.sourceforge.net/DTD/sodipodi-0.dtd"
   xmlns="http://www.w3.org/2000/svg"
   xmlns:svg="http://www.w3.org/2000/svg">
  <sodipodi:namedview
     id="namedview7"
     pagecolor="#ffffff"
     bordercolor="#666666"
     borderopacity="1.0"
     inkscape:pageshadow="2"
     inkscape:pageopacity="0.0"
     inkscape:pagecheckerboard="0"
     inkscape:document-units="mm"
     showgrid="false"
     inkscape:zoom="0.77771465"
     inkscape:cx="-84.221122"
     inkscape:cy="187.08661"
     inkscape:window-width="2475"
     inkscape:window-height="1376"
     inkscape:window-x="0"
     inkscape:window-y="0"
     inkscape:window-maximized="1"
     inkscape:current-layer="layer1" />
  <defs
     id="defs2" />
  <g
     inkscape:label="Слой 1"
     inkscape:groupmode="layer"
     id="layer1">
    <path
       style="fill:#ffffff;stroke-width:0.418055"
       d="M 37.233921,184.78453 C 27.806501,182.7463 20.218088,178.66024 13.472616,171.99001 7.5958054,166.17873 3.2794937,158.74526 1.1018237,150.68524 0.11011319,147.01471 0,145.87768 0,139.30799 0,132.75072 0.11122198,131.59736 1.0942198,127.96057 4.6011268,114.9862 13.296916,104.34392 25.420265,98.18932 l 4.019927,-2.04078 0.125723,-21.090851 0.125724,-21.09083 1.583011,-3.187392 c 1.789083,-3.602301 3.868536,-5.660842 7.425826,-7.351103 l 2.304587,-1.095031 h 78.355957 78.35595 l 2.40339,1.121221 c 3.07068,1.432541 6.34452,4.691362 7.78365,7.747983 l 1.12638,2.392372 v 47.131771 47.13175 l -1.20434,2.59533 c -1.4146,3.0485 -4.7297,6.38584 -7.69942,7.75111 l -1.99065,0.91514 -54.89107,0.11351 -54.891064,0.11349 -1.758207,3.06624 c -6.199567,10.81178 -16.624653,18.63142 -29.320122,21.9924 -4.889496,1.29443 -14.92887,1.48419 -20.041596,0.37883 z m 18.017677,-13.10449 c 9.950461,-2.69576 18.752922,-10.52518 22.417269,-19.93926 7.444222,-19.12498 -2.994,-39.69869 -22.836283,-45.01027 -4.652969,-1.24554 -12.44064,-1.2474 -17.128592,-0.005 -9.602183,2.54669 -17.219245,8.71686 -21.427871,17.35757 -2.766459,5.6798 -3.320661,8.18052 -3.327672,15.01544 -0.0068,6.61791 0.54343,9.30555 2.938319,14.35276 4.65341,9.80697 13.301328,16.54987 24.102261,18.79281 2.801355,0.58175 12.332066,0.22893 15.262569,-0.565 z M 39.957524,153.69778 v -7.71627 h -7.961299 -7.9613 v -6.46497 -6.46498 h 7.9613 7.961299 v -7.71627 -7.71626 h 6.494743 6.494746 v 7.71626 7.71627 h 7.542284 7.542283 v 6.46498 6.46497 h -7.542283 -7.542284 v 7.71627 7.71626 h -6.494746 -6.494743 z m 155.371046,-7.79969 c 0.38181,-0.38005 0.50283,-7.75797 0.50283,-30.6565 V 85.0856 H 118.94199 42.052603 v 3.89883 3.89885 l 4.855458,0.27605 c 9.76305,0.55503 17.31591,2.93195 24.894661,7.83443 3.617865,2.34029 10.664667,9.40871 13.17647,13.21689 5.360866,8.12769 8.285107,19.11814 7.593238,28.53838 l -0.268046,3.64957 h 51.260676 c 39.31074,0 51.37792,-0.11669 51.76351,-0.50051 z m -51.03611,-17.22603 v -6.46498 h 6.49474 6.49474 v 6.46498 6.46498 h -6.49474 -6.49474 z m 25.14095,0 v -6.46498 h 6.49472 6.49476 v 6.46498 6.46498 h -6.49476 -6.49472 z M 196.2504,64.105714 c 0,-5.704943 -0.14647,-8.195754 -0.50282,-8.550464 -0.38737,-0.385591 -17.89133,-0.500511 -76.2371,-0.500511 H 43.776187 L 43.1239,55.98174 c -0.532607,0.75692 -0.652282,2.325671 -0.652282,8.550444 v 7.623463 h 76.889402 76.88938 z"
       id="path527" />
  </g>
</svg>
