<svg width="20" height="20" viewBox="0 0 20 20" fill="none" xmlns="http://www.w3.org/2000/svg">
<g clip-path="url(#clip0_9:24)">
<path d="M15.38 0.737625L5.22002 10.8976C4.83197 11.2836 4.52433 11.7427 4.31492 12.2483C4.1055 12.754 3.99847 13.2962 4.00002 13.8435V14.9626C4.00002 15.1836 4.08781 15.3956 4.24409 15.5519C4.40037 15.7082 4.61234 15.796 4.83335 15.796H5.95252C6.49982 15.7975 7.04199 15.6905 7.54765 15.4811C8.0533 15.2716 8.5124 14.964 8.89835 14.576L19.0584 4.41596C19.5453 3.92777 19.8188 3.26635 19.8188 2.57679C19.8188 1.88723 19.5453 1.22582 19.0584 0.737625C18.5631 0.264203 17.9043 0 17.2192 0C16.534 0 15.8753 0.264203 15.38 0.737625V0.737625ZM17.88 3.23763L7.72002 13.3976C7.25012 13.8647 6.61502 14.1276 5.95252 14.1293H5.66668V13.8435C5.66842 13.181 5.93132 12.5459 6.39835 12.076L16.5584 1.91596C16.7363 1.74592 16.973 1.65104 17.2192 1.65104C17.4653 1.65104 17.702 1.74592 17.88 1.91596C18.055 2.09139 18.1532 2.32903 18.1532 2.57679C18.1532 2.82455 18.055 3.0622 17.88 3.23763V3.23763Z" fill="white"/>
<path d="M19.1667 11.6667C18.9457 11.6667 18.7337 11.7545 18.5774 11.9107C18.4211 12.067 18.3333 12.279 18.3333 12.5L15 12.5C14.337 12.5 13.7011 12.7634 13.2322 13.2322C12.7634 13.7011 12.5 14.337 12.5 15V18.3333H4.16667C3.50363 18.3333 2.86774 18.0699 2.3989 17.6011C1.93006 17.1323 1.66667 16.4964 1.66667 15.8333L1.66667 8.35083C1.66667 7.68779 1.93006 7.05191 2.3989 6.58307C2.86774 6.11423 3.50363 5.85083 4.16667 5.85083H8C8.22102 5.85083 8.43298 5.76304 8.58926 5.60676C8.74554 5.45047 8.83334 5.23851 8.83334 5.0175C8.83334 4.79649 8.74554 4.58452 8.58926 4.42824C8.43298 4.27196 8.22102 4.18417 8 4.18417H4.16667C3.06201 4.18549 2.00297 4.6249 1.22185 5.40602C0.440735 6.18713 0.00132322 7.24617 0 8.35083L1.88947e-06 15.8333C0.0013251 16.938 0.440737 17.997 1.22185 18.7782C2.00297 19.5593 3.06201 19.9987 4.16667 20H13.6192C14.1666 20.0016 14.7089 19.8945 15.2147 19.6851C15.7205 19.4757 16.1797 19.1681 16.5658 18.78L18.7792 16.565C19.1673 16.1791 19.475 15.72 19.6846 15.2143C19.8941 14.7087 20.0014 14.1665 20 13.6192L20 12.5C20 12.279 19.9122 12.067 19.7559 11.9107C19.5997 11.7545 19.3877 11.6667 19.1667 11.6667ZM15.3875 17.6017C15.0525 17.9358 14.6289 18.1672 14.1667 18.2683V15C14.1667 14.779 14.2545 14.567 14.4108 14.4107C14.567 14.2545 14.779 14.1667 15 14.1667H18.2708C18.1678 14.6279 17.9367 15.0508 17.6042 15.3867L15.3875 17.6017Z" fill="white"/>
</g>
<defs>
<clipPath id="clip0_9:24">
<rect width="20" height="20" fill="white"/>
</clipPath>
</defs>
</svg>
