<svg width="67" height="67" viewBox="0 0 67 67" fill="none" xmlns="http://www.w3.org/2000/svg">
<path d="M21.4986 49.8122L16.8918 45.2054C13.8205 44.4376 9.2137 44.8215 6.52637 49.0444C3.45514 53.2674 5.37466 59.7937 0 66.704C0 66.704 13.4366 66.704 18.4274 61.7133C23.0342 57.1064 23.0342 53.2674 22.2664 50.1961L21.4986 49.8122V49.8122Z" fill="white"/>
<path d="M66.0906 0.919019C64.9389 -0.232693 63.4032 -0.232693 62.2515 0.535115C62.2515 0.535115 50.7344 10.1327 39.6012 20.1142C38.0656 21.6498 36.9139 22.8015 35.3783 23.9533C34.6104 24.7211 33.8426 25.4889 33.0748 25.8728L41.1368 33.9348C41.9046 33.167 42.6724 32.3991 43.0563 31.2474C44.208 29.7118 45.3598 28.5601 46.5115 27.0245C56.1091 15.5074 66.0906 4.37416 66.0906 4.37416C67.2423 3.60635 67.2423 2.07073 66.0906 0.919019Z" fill="white"/>
<path d="M18.1124 43.6364L22.5242 39.1511C23.6861 37.9698 25.5855 37.9541 26.7667 39.116L28.4858 40.8069C29.667 41.9688 29.6827 43.8682 28.5209 45.0494L24.1091 49.5347L18.1124 43.6364Z" fill="white"/>
<path d="M29.1 38.0226C26.946 35.904 26.9174 32.4403 29.036 30.2863L30.3192 28.9818C31.0902 28.1978 32.3508 28.1874 33.1348 28.9585L38.0962 33.8386C38.8801 34.6096 38.8905 35.8702 38.1194 36.6542L36.8363 37.9587C34.7176 40.1127 31.254 40.1413 29.1 38.0226V38.0226Z" fill="white"/>
</svg>
