<svg width="72" height="76" viewBox="0 0 72 76" fill="none" xmlns="http://www.w3.org/2000/svg">
<path d="M35.0068 50.176C34.6108 50.176 34.2808 50.044 34.0168 49.78C33.7528 49.516 33.6208 49.186 33.6208 48.79V46.15C33.7088 43.818 34.3028 41.816 35.4028 40.144C36.5028 38.472 38.1088 36.558 40.2208 34.402C41.9368 32.642 43.1908 31.19 43.9828 30.046C44.7748 28.902 45.1708 27.648 45.1708 26.284C45.1708 24.26 44.3128 22.654 42.5968 21.466C40.9248 20.278 38.9668 19.684 36.7228 19.684C31.4868 19.684 28.4068 22.324 27.4828 27.604C27.2628 28.572 26.6908 29.056 25.7668 29.056H22.5988C22.1588 29.056 21.8068 28.924 21.5428 28.66C21.2788 28.396 21.1467 28.044 21.1467 27.604C21.2348 25.184 21.9168 22.962 23.1928 20.938C24.5128 18.87 26.3608 17.22 28.7368 15.988C31.1128 14.756 33.8408 14.14 36.9208 14.14C40.1768 14.14 42.9048 14.712 45.1048 15.856C47.3488 16.956 48.9988 18.408 50.0548 20.212C51.1108 21.972 51.6388 23.864 51.6388 25.888C51.6388 28.132 51.1328 30.068 50.1208 31.696C49.1088 33.324 47.5908 35.216 45.5668 37.372C43.8948 39.132 42.6408 40.628 41.8048 41.86C40.9688 43.048 40.4848 44.39 40.3528 45.886C40.2648 47.118 40.2208 48.042 40.2208 48.658C40.0008 49.67 39.4508 50.176 38.5708 50.176H35.0068ZM34.4788 61C34.0388 61 33.6648 60.868 33.3568 60.604C33.0928 60.296 32.9608 59.922 32.9608 59.482V55.456C32.9608 55.016 33.0928 54.664 33.3568 54.4C33.6648 54.092 34.0388 53.938 34.4788 53.938H38.7688C39.2088 53.938 39.5828 54.092 39.8908 54.4C40.1988 54.664 40.3528 55.016 40.3528 55.456V59.482C40.3528 59.922 40.1988 60.296 39.8908 60.604C39.5828 60.868 39.2088 61 38.7688 61H34.4788Z" fill="white"/>
<circle cx="36" cy="38" r="33" stroke="white" stroke-width="6"/>
</svg>
