<svg width="94" height="75" viewBox="0 0 94 75" fill="none" xmlns="http://www.w3.org/2000/svg">
<path d="M71.0833 29.1667L89.8333 43.75L79.4167 43.75C79.4167 68.6521 59.2542 71.525 48.1667 70.8333C53.7604 69.7875 62.75 69.3021 62.75 43.75L52.3333 43.75L71.0833 29.1667Z" stroke="white" stroke-width="4.16667" stroke-linecap="round" stroke-linejoin="round"/>
<path d="M8.65914 57.2815C10.5454 68.4453 20.7341 75.9078 31.4179 73.9353C42.1054 71.9665 51.1279 63.3753 49.2416 52.204C48.8404 49.8003 47.7116 46.039 46.3804 43.3353L65.7866 14.374C66.5029 13.3053 66.9079 11.3778 66.6941 10.0953L65.4454 2.70402C65.4006 2.40465 65.297 2.11711 65.1406 1.85796C64.9841 1.5988 64.778 1.37314 64.534 1.19398C64.29 1.01483 64.013 0.885712 63.7189 0.814064C63.4248 0.742416 63.1195 0.729657 62.8204 0.776519L57.1354 1.83027C55.9054 2.05152 54.3454 3.13527 53.6704 4.22652L47.5004 7.00027L45.9941 16.6428L45.9266 16.7253L40.7291 17.6853L31.7666 32.2315C28.8229 31.7103 24.5966 31.8865 22.0991 32.3478C11.4191 34.3203 6.77289 46.1103 8.65914 57.2815ZM18.1279 51.5553C21.0679 47.1678 27.5704 46.4213 31.7666 49.5C35.9629 52.5675 36.2704 58.294 33.3341 62.6815C30.3941 67.069 24.6116 68.1378 20.4079 65.0628C16.2079 61.9915 15.1916 55.9428 18.1279 51.5553Z" fill="white"/>
</svg>
