<svg width="75" height="75" viewBox="0 0 75 75" fill="none" xmlns="http://www.w3.org/2000/svg">
<g clip-path="url(#clip0_36_70)">
<path d="M8.65914 57.2815C10.5454 68.4453 20.7341 75.9078 31.4179 73.9353C42.1054 71.9665 51.1279 63.3753 49.2416 52.204C48.8404 49.8003 47.7116 46.039 46.3804 43.3353L65.7866 14.374C66.5029 13.3053 66.9079 11.3778 66.6941 10.0953L65.4454 2.70402C65.4006 2.40465 65.297 2.11711 65.1406 1.85796C64.9841 1.5988 64.778 1.37314 64.534 1.19398C64.29 1.01483 64.013 0.885712 63.7189 0.814064C63.4248 0.742416 63.1195 0.729657 62.8204 0.776519L57.1354 1.83027C55.9054 2.05152 54.3454 3.13527 53.6704 4.22652L47.5004 7.00027L45.9941 16.6428L45.9266 16.7253L40.7291 17.6853L31.7666 32.2315C28.8229 31.7103 24.5966 31.8865 22.0991 32.3478C11.4191 34.3203 6.77289 46.1103 8.65914 57.2815ZM18.1279 51.5553C21.0679 47.1678 27.5704 46.4213 31.7666 49.5C35.9629 52.5675 36.2704 58.294 33.3341 62.6815C30.3941 67.069 24.6116 68.1378 20.4079 65.0628C16.2079 61.9915 15.1916 55.9428 18.1279 51.5553Z" fill="white"/>
<path d="M65.0607 46.9393C64.4749 46.3536 63.5251 46.3536 62.9393 46.9393L53.3934 56.4853C52.8076 57.0711 52.8076 58.0208 53.3934 58.6066C53.9792 59.1924 54.9289 59.1924 55.5147 58.6066L64 50.1213L72.4853 58.6066C73.0711 59.1924 74.0208 59.1924 74.6066 58.6066C75.1924 58.0208 75.1924 57.0711 74.6066 56.4853L65.0607 46.9393ZM65.5 74L65.5 48L62.5 48L62.5 74L65.5 74Z" fill="white"/>
</g>
<defs>
<clipPath id="clip0_36_70">
<rect width="75" height="75" fill="white"/>
</clipPath>
</defs>
</svg>
