<svg width="75" height="75" viewBox="0 0 75 75" fill="none" xmlns="http://www.w3.org/2000/svg">
<path d="M66.3412 17.7188C64.455 6.555 54.2662 -0.907496 43.5825 1.065C32.895 3.03375 23.8725 11.625 25.7587 22.7963C26.16 25.2 27.2887 28.9613 28.62 31.665L9.21372 60.6263C8.49747 61.695 8.09247 63.6225 8.30622 64.905L9.55497 72.2963C9.5998 72.5956 9.7034 72.8832 9.85981 73.1423C10.0162 73.4015 10.2224 73.6271 10.4663 73.8063C10.7103 73.9854 10.9874 74.1146 11.2815 74.1862C11.5756 74.2579 11.8809 74.2706 12.18 74.2238L17.865 73.17C19.095 72.9488 20.655 71.865 21.33 70.7738L27.5 68L29.0062 58.3575L29.0737 58.275L34.2712 57.315L43.2337 42.7688C46.1775 43.29 50.4037 43.1138 52.9012 42.6525C63.5812 40.68 68.2275 28.89 66.3412 17.7188ZM56.8725 23.445C53.9325 27.8325 47.7787 28.0788 43.5825 25C39.3862 21.9325 38.73 16.7063 41.6662 12.3188C44.6062 7.93125 50.3887 6.8625 54.5925 9.9375C58.7925 13.0088 59.8087 19.0575 56.8725 23.445Z" fill="white"/>
<path d="M61.9393 73.0607C62.5251 73.6464 63.4749 73.6464 64.0607 73.0607L73.6066 63.5147C74.1924 62.9289 74.1924 61.9792 73.6066 61.3934C73.0208 60.8076 72.0711 60.8076 71.4853 61.3934L63 69.8787L54.5147 61.3934C53.9289 60.8076 52.9792 60.8076 52.3934 61.3934C51.8076 61.9792 51.8076 62.9289 52.3934 63.5147L61.9393 73.0607ZM61.5 46L61.5 72L64.5 72L64.5 46L61.5 46Z" fill="white"/>
</svg>
