<svg width="92" height="81" viewBox="0 0 92 81" fill="none" xmlns="http://www.w3.org/2000/svg">
<path d="M66.3413 17.7188C64.455 6.555 54.2663 -0.907496 43.5825 1.065C32.895 3.03375 23.8725 11.625 25.7588 22.7963C26.16 25.2 27.2888 28.9613 28.62 31.665L9.21375 60.6263C8.4975 61.695 8.0925 63.6225 8.30625 64.905L9.555 72.2963C9.59983 72.5956 9.70343 72.8832 9.85984 73.1423C10.0163 73.4015 10.2224 73.6271 10.4664 73.8063C10.7104 73.9854 10.9874 74.1146 11.2815 74.1862C11.5756 74.2579 11.881 74.2706 12.18 74.2238L17.865 73.17C19.095 72.9488 20.655 71.865 21.33 70.7738L27.5 68L29.0063 58.3575L29.0738 58.275L34.2713 57.315L43.2338 42.7688C46.1775 43.29 50.4038 43.1138 52.9013 42.6525C63.5813 40.68 68.2275 28.89 66.3413 17.7188ZM56.8725 23.445C53.9325 27.8325 47.7788 28.0788 43.5825 25C39.3863 21.9325 38.73 16.7063 41.6663 12.3188C44.6063 7.93125 50.3888 6.8625 54.5925 9.9375C58.7925 13.0088 59.8088 19.0575 56.8725 23.445Z" fill="white"/>
<path d="M64.9167 76.8333L46.1667 62.25L56.5833 62.25C56.5833 37.3479 76.7458 34.475 87.8333 35.1667C82.2396 36.2125 73.25 36.6979 73.25 62.25L83.6667 62.25L64.9167 76.8333Z" stroke="white" stroke-width="4.16667" stroke-linecap="round" stroke-linejoin="round"/>
</svg>
