<svg width="20" height="20" viewBox="0 0 20 20" fill="none" xmlns="http://www.w3.org/2000/svg">
<g clip-path="url(#clip0_3:8)">
<path d="M9.27513 -0.000106444C9.52244 -0.000218523 9.76422 0.0730318 9.96989 0.210376C10.1756 0.34772 10.3359 0.542985 10.4305 0.771462C10.5252 0.99994 10.5499 1.25136 10.5016 1.49391C10.4534 1.73646 10.3342 1.95924 10.1593 2.13406L3.76596 8.52656C3.57245 8.72002 3.41894 8.94971 3.31421 9.20251C3.20948 9.45531 3.15557 9.72626 3.15557 9.99989C3.15557 10.2735 3.20948 10.5445 3.31421 10.7973C3.41894 11.0501 3.57245 11.2798 3.76596 11.4732L10.1593 17.8657C10.2754 17.9818 10.3675 18.1197 10.4303 18.2714C10.4932 18.4231 10.5255 18.5857 10.5255 18.7499C10.5255 19.0815 10.3938 19.3996 10.1593 19.6341C9.9248 19.8686 9.60676 20.0003 9.27513 20.0003C9.11092 20.0003 8.94833 19.968 8.79662 19.9051C8.64492 19.8423 8.50707 19.7502 8.39096 19.6341L1.99846 13.2407C1.13897 12.3812 0.656107 11.2154 0.656107 9.99989C0.656107 8.78435 1.13897 7.6186 1.99846 6.75906L8.39096 0.365726C8.50709 0.24967 8.64495 0.157629 8.79666 0.0948588C8.94836 0.0320884 9.11095 -0.000180844 9.27513 -0.000106444V-0.000106444Z" fill="white"/>
<path d="M18.6199 0.000276774C18.8671 0.000329573 19.1088 0.0736998 19.3143 0.211107C19.5198 0.348515 19.68 0.543787 19.7746 0.772231C19.8691 1.00067 19.8938 1.25203 19.8455 1.4945C19.7972 1.73697 19.6781 1.95968 19.5032 2.13445L11.9324 9.70528C11.8936 9.74399 11.8628 9.78997 11.8418 9.84059C11.8208 9.89121 11.81 9.94548 11.81 10.0003C11.81 10.0551 11.8208 10.1094 11.8418 10.16C11.8628 10.2106 11.8936 10.2566 11.9324 10.2953L19.5032 17.8661C19.7377 18.1005 19.8695 18.4184 19.8696 18.75C19.8696 19.0815 19.738 19.3995 19.5036 19.634C19.2692 19.8685 18.9513 20.0003 18.6197 20.0004C18.2882 20.0005 17.9702 19.8688 17.7357 19.6345L10.164 12.0628C9.61866 11.5151 9.31247 10.7736 9.31248 10.0007C9.31248 9.22777 9.61866 8.48632 10.164 7.93861L17.7357 0.36611C17.8518 0.250054 17.9897 0.158013 18.1414 0.0952421C18.2931 0.0324717 18.4557 0.000202374 18.6199 0.000276774V0.000276774Z" fill="white"/>
</g>
<defs>
<clipPath id="clip0_3:8">
<rect width="20" height="20" fill="white"/>
</clipPath>
</defs>
</svg>
