<svg width="80" height="80" viewBox="0 0 80 80" fill="none" xmlns="http://www.w3.org/2000/svg">
<rect x="38.691" y="38.3354" width="34.3498" height="7.37633" transform="rotate(-47.2467 38.691 38.3354)" fill="white"/>
<path d="M33.2515 49.1587L36.8157 42.2322L40.4898 45.6289L34.17 50.0079L33.2515 49.1587Z" fill="white"/>
<path d="M77.7971 3.11981C79.0137 4.24455 79.0882 6.14259 77.9635 7.35919L69.8098 16.1787L64.2324 11.0224L72.386 2.20285C73.5108 0.986245 75.4088 0.911779 76.6254 2.03652L77.7971 3.11981Z" fill="white"/>
<circle cx="14.161" cy="47.3301" r="12.161" stroke="white" stroke-width="4"/>
<path d="M50.9794 47.3301C50.9794 55.151 44.6393 61.4911 36.8184 61.4911C28.9975 61.4911 22.6575 55.151 22.6575 47.3301C22.6575 39.5093 28.9975 33.1692 36.8184 33.1692" stroke="white" stroke-width="4"/>
<path d="M37.6506 66.0226C37.6506 72.3499 32.2837 77.6171 25.4897 77.6171C18.6956 77.6171 13.3287 72.3499 13.3287 66.0226C13.3287 59.6953 18.6956 54.4281 25.4897 54.4281C32.2837 54.4281 37.6506 59.6953 37.6506 66.0226Z" stroke="white" stroke-width="4"/>
</svg>
