<svg width="20" height="20" viewBox="0 0 20 20" fill="none" xmlns="http://www.w3.org/2000/svg">
<g clip-path="url(#clip0_11:29)">
<path d="M10.7249 20.0001C10.4776 20.0002 10.2358 19.927 10.0301 19.7896C9.82445 19.6523 9.66415 19.457 9.56949 19.2285C9.47484 19.0001 9.45008 18.7486 9.49836 18.5061C9.54664 18.2635 9.66578 18.0408 9.84071 17.8659L16.234 11.4734C16.4276 11.28 16.5811 11.0503 16.6858 10.7975C16.7905 10.5447 16.8444 10.2737 16.8444 10.0001C16.8444 9.72647 16.7905 9.45552 16.6858 9.20272C16.5811 8.94993 16.4276 8.72024 16.234 8.52677L9.84071 2.13427C9.7246 2.01816 9.6325 1.88032 9.56966 1.72861C9.50682 1.57691 9.47448 1.41431 9.47448 1.25011C9.47448 0.91848 9.60622 0.600436 9.84071 0.36594C10.0752 0.131445 10.3933 -0.000293571 10.7249 -0.000293513C10.8891 -0.000293484 11.0517 0.0320491 11.2034 0.0948876C11.3551 0.157726 11.4929 0.24983 11.609 0.36594L18.0015 6.75927C18.861 7.61881 19.3439 8.78457 19.3439 10.0001C19.3439 11.2156 18.861 12.3814 18.0015 13.2409L11.609 19.6343C11.4929 19.7503 11.3551 19.8424 11.2033 19.9051C11.0516 19.9679 10.8891 20.0002 10.7249 20.0001V20.0001Z" fill="white"/>
<path d="M1.38014 19.9997C1.1329 19.9997 0.891232 19.9263 0.685694 19.7889C0.480156 19.6515 0.319982 19.4562 0.225429 19.2278C0.130876 18.9993 0.106192 18.748 0.154497 18.5055C0.202802 18.263 0.321927 18.0403 0.496807 17.8655L8.06764 10.2947C8.10645 10.256 8.13723 10.21 8.15824 10.1594C8.17924 10.1088 8.19006 10.0545 8.19006 9.99971C8.19006 9.9449 8.17924 9.89063 8.15824 9.84001C8.13723 9.78939 8.10645 9.74341 8.06765 9.70471L0.496809 2.13386C0.262314 1.89948 0.130532 1.58154 0.130454 1.24999C0.130375 0.918443 0.262008 0.600442 0.496393 0.365946C0.730778 0.13145 1.04872 -0.000331744 1.38027 -0.000409827C1.71181 -0.000487909 2.02981 0.131145 2.26431 0.36553L9.83598 7.9372C10.3813 8.48492 10.6875 9.22637 10.6875 9.99929C10.6875 10.7722 10.3813 11.5137 9.83598 12.0614L2.26431 19.6339C2.14818 19.7499 2.01032 19.842 1.85861 19.9047C1.70691 19.9675 1.54432 19.9998 1.38014 19.9997V19.9997Z" fill="white"/>
</g>
<defs>
<clipPath id="clip0_11:29">
<rect width="20" height="20" fill="white" transform="translate(20 20) rotate(-180)"/>
</clipPath>
</defs>
</svg>
