<?xml version="1.0" encoding="UTF-8" standalone="no"?>
<!-- Created with Inkscape (http://www.inkscape.org/) -->

<svg
   width="111.66584mm"
   height="135.32048mm"
   viewBox="0 0 111.66584 135.32048"
   version="1.1"
   id="svg5"
   xml:space="preserve"
   xmlns:inkscape="http://www.inkscape.org/namespaces/inkscape"
   xmlns:sodipodi="http://sodipodi.sourceforge.net/DTD/sodipodi-0.dtd"
   xmlns="http://www.w3.org/2000/svg"
   xmlns:svg="http://www.w3.org/2000/svg"><sodipodi:namedview
     id="namedview7"
     pagecolor="#ffffff"
     bordercolor="#666666"
     borderopacity="1.0"
     inkscape:showpageshadow="2"
     inkscape:pageopacity="0.0"
     inkscape:pagecheckerboard="0"
     inkscape:deskcolor="#d1d1d1"
     inkscape:document-units="mm"
     showgrid="false" /><defs
     id="defs2" /><g
     inkscape:label="Layer 1"
     inkscape:groupmode="layer"
     id="layer1"
     transform="translate(-48.460462,-73.257971)"><path
       style="fill:#ffffff;stroke-width:0.264583"
       d="m 100.31879,208.09286 c -0.80036,-0.25906 -2.07094,-0.78571 -2.8235,-1.17033 -0.75257,-0.38463 -2.12179,-1.45449 -3.04271,-2.37747 -1.11286,-1.11535 -2.00062,-2.33748 -2.64709,-3.64409 -0.53497,-1.08126 -1.10052,-2.6724 -1.25677,-3.53587 -0.15625,-0.86347 -0.28409,-1.84574 -0.28409,-2.18282 v -0.61286 h 14.02291 14.02292 v 0.61286 c 0,0.33708 -0.12784,1.31935 -0.2841,2.18282 -0.15625,0.86347 -0.7218,2.45461 -1.25677,3.53587 -0.64669,1.30707 -1.53425,2.52876 -2.64831,3.64531 -0.9216,0.92367 -2.35035,2.01991 -3.175,2.4361 -0.82465,0.41619 -2.14605,0.94869 -2.93645,1.18333 -0.88456,0.2626 -2.35959,0.42115 -3.83646,0.4124 -1.54364,-0.009 -2.91837,-0.18222 -3.85458,-0.48525 z m -51.681323,-20.3138 c -0.09735,-0.0974 -0.177006,-1.67605 -0.177006,-3.50821 v -3.33122 l 7.011458,-7.00771 7.011458,-7.00771 v -18.86387 c 0,-11.14892 0.111827,-19.91463 0.273429,-21.43312 0.150386,-1.41309 0.515159,-3.81532 0.810609,-5.33828 0.29545,-1.52296 0.959895,-4.08281 1.476555,-5.68854 0.51665,-1.60574 1.52253,-4.1605 2.23527,-5.67726 0.71275,-1.51675 2.05771,-3.898 2.9888,-5.29166 0.93109,-1.39366 2.39321,-3.34007 3.24916,-4.32536 0.85595,-0.985291 2.4442,-2.574001 3.52945,-3.530471 1.08525,-0.95647 2.92568,-2.36659 4.08985,-3.1336 1.16417,-0.76701 2.83399,-1.75609 3.71073,-2.19795 0.87673,-0.44186 2.5436,-1.16486 3.70416,-1.60666 1.16056,-0.4418 2.79472,-0.99785 3.63146,-1.23567 l 1.52136,-0.43239 0.005,-2.56091 c 0.002,-1.40851 0.16974,-3.33482 0.3716,-4.28071 0.20186,-0.94588 0.6724,-2.25503 1.04566,-2.90922 0.37325,-0.65419 1.18829,-1.71258 1.8112,-2.35198 0.62291,-0.6394 1.90647,-1.5329 2.85235,-1.98557 1.58711,-0.75952 1.93413,-0.82302 4.49792,-0.82302 2.56379,0 2.91081,0.0635 4.49792,0.82302 0.94588,0.45267 2.22944,1.34617 2.85235,1.98557 0.62291,0.6394 1.43795,1.69779 1.8112,2.35198 0.37325,0.65419 0.8438,1.96334 1.04566,2.90922 0.20186,0.94589 0.36908,2.8722 0.37161,4.28071 l 0.005,2.56091 1.52136,0.43239 c 0.83674,0.23782 2.4709,0.79387 3.63146,1.23567 1.16056,0.4418 2.82744,1.1648 3.70417,1.60666 0.87673,0.44186 2.54656,1.43094 3.71072,2.19795 1.16417,0.76701 3.0046,2.17713 4.08985,3.1336 1.08525,0.95647 2.6735,2.54518 3.52945,3.530471 0.85595,0.98529 2.31807,2.9317 3.24917,4.32536 0.93109,1.39366 2.27604,3.77491 2.98879,5.29166 0.71274,1.51676 1.71862,4.07152 2.23527,5.67726 0.51666,1.60573 1.18111,4.16558 1.47656,5.68854 0.29545,1.52296 0.66022,3.92519 0.81061,5.33828 0.1616,1.51849 0.27343,10.2842 0.27343,21.43312 v 18.86387 l 7.01689,7.00958 7.0169,7.00959 -0.0716,3.43958 -0.0716,3.43958 -55.58393,0.0668 c -30.57116,0.0367 -55.663583,-0.0129 -55.760937,-0.11025 z"
       id="path179" /></g></svg>
