<svg width="65" height="65" viewBox="0 0 65 65" fill="none" xmlns="http://www.w3.org/2000/svg">
<path d="M10.9428 18.0191C13.8049 15.157 17.3076 13.0178 21.161 11.7787C25.0143 10.5396 29.1073 10.2363 33.1012 10.8938C37.0951 11.5513 40.8749 13.1507 44.1277 15.5596C47.3805 17.9685 50.0126 21.1176 51.8062 24.7462C53.5998 28.3748 54.5033 32.3784 54.4417 36.4256C54.3802 40.4727 53.3555 44.447 51.4524 48.0194C49.5493 51.5917 46.8226 54.6594 43.4981 56.9683C40.1736 59.2772 36.3469 60.761 32.3349 61.2967" stroke="white" stroke-width="7" stroke-linecap="round"/>
<path d="M19.6242 27.5587C21.0146 26.1683 22.7162 25.1291 24.5881 24.5271C26.4601 23.9252 28.4485 23.7778 30.3887 24.0972C32.3289 24.4166 34.1652 25.1936 35.7453 26.3639C37.3255 27.5341 38.6042 29.064 39.4756 30.8267C40.3469 32.5895 40.7858 34.5344 40.7559 36.5005C40.726 38.4667 40.2282 40.3974 39.3037 42.1328C38.3791 43.8682 37.0545 45.3585 35.4395 46.4802C33.8244 47.6018 31.9654 48.3226 30.0164 48.5829" stroke="white" stroke-width="7" stroke-linecap="round"/>
<circle cx="27.4917" cy="36.7242" r="4.21447" fill="white"/>
<circle cx="11.2219" cy="45.3491" r="10.0951" fill="white"/>
</svg>
