<svg width="20" height="20" viewBox="0 0 20 20" fill="none" xmlns="http://www.w3.org/2000/svg">
<g clip-path="url(#clip0_4:11)">
<path d="M6.66669 5.83333L18.75 5.83333C19.0815 5.83333 19.3995 5.70164 19.6339 5.46722C19.8683 5.2328 20 4.91486 20 4.58333C20 4.25181 19.8683 3.93387 19.6339 3.69945C19.3995 3.46503 19.0815 3.33334 18.75 3.33334L6.66669 3.33334C6.33517 3.33334 6.01722 3.46503 5.7828 3.69945C5.54838 3.93387 5.41669 4.25181 5.41669 4.58333C5.41669 4.91486 5.54838 5.2328 5.7828 5.46722C6.01722 5.70164 6.33517 5.83333 6.66669 5.83333V5.83333Z" fill="white"/>
<path d="M18.75 9.16667L6.66669 9.16667C6.33517 9.16667 6.01722 9.29836 5.7828 9.53278C5.54838 9.7672 5.41669 10.0851 5.41669 10.4167C5.41669 10.7482 5.54838 11.0661 5.7828 11.3005C6.01722 11.535 6.33517 11.6667 6.66669 11.6667L18.75 11.6667C19.0815 11.6667 19.3995 11.535 19.6339 11.3005C19.8683 11.0661 20 10.7482 20 10.4167C20 10.0851 19.8683 9.7672 19.6339 9.53278C19.3995 9.29836 19.0815 9.16667 18.75 9.16667Z" fill="white"/>
<path d="M18.75 15L6.66669 15C6.33517 15 6.01722 15.1317 5.7828 15.3661C5.54838 15.6005 5.41669 15.9185 5.41669 16.25C5.41669 16.5815 5.54838 16.8995 5.7828 17.1339C6.01722 17.3683 6.33517 17.5 6.66669 17.5H18.75C19.0815 17.5 19.3995 17.3683 19.6339 17.1339C19.8683 16.8995 20 16.5815 20 16.25C20 15.9185 19.8683 15.6005 19.6339 15.3661C19.3995 15.1317 19.0815 15 18.75 15Z" fill="white"/>
<path d="M2.08333 6.66667C3.23393 6.66667 4.16667 5.73393 4.16667 4.58333C4.16667 3.43274 3.23393 2.5 2.08333 2.5C0.93274 2.5 0 3.43274 0 4.58333C0 5.73393 0.93274 6.66667 2.08333 6.66667Z" fill="white"/>
<path d="M2.08333 12.0833C3.23393 12.0833 4.16667 11.1506 4.16667 10C4.16667 8.84941 3.23393 7.91667 2.08333 7.91667C0.93274 7.91667 0 8.84941 0 10C0 11.1506 0.93274 12.0833 2.08333 12.0833Z" fill="white"/>
<path d="M2.08333 17.9167C3.23393 17.9167 4.16667 16.9839 4.16667 15.8333C4.16667 14.6827 3.23393 13.75 2.08333 13.75C0.93274 13.75 0 14.6827 0 15.8333C0 16.9839 0.93274 17.9167 2.08333 17.9167Z" fill="white"/>
</g>
<defs>
<clipPath id="clip0_4:11">
<rect width="20" height="20" fill="white"/>
</clipPath>
</defs>
</svg>
