<?xml version="1.0" encoding="UTF-8" standalone="no"?>
<!-- Created with Inkscape (http://www.inkscape.org/) -->

<svg
   width="200mm"
   height="200mm"
   viewBox="0 0 200 200"
   version="1.1"
   id="svg5"
   inkscape:version="1.1.2 (0a00cf5339, 2022-02-04)"
   sodipodi:docname="qrcode.svg"
   xmlns:inkscape="http://www.inkscape.org/namespaces/inkscape"
   xmlns:sodipodi="http://sodipodi.sourceforge.net/DTD/sodipodi-0.dtd"
   xmlns="http://www.w3.org/2000/svg"
   xmlns:svg="http://www.w3.org/2000/svg">
  <sodipodi:namedview
     id="namedview7"
     pagecolor="#ffffff"
     bordercolor="#666666"
     borderopacity="1.0"
     inkscape:pageshadow="2"
     inkscape:pageopacity="0.0"
     inkscape:pagecheckerboard="0"
     inkscape:document-units="mm"
     showgrid="false"
     inkscape:zoom="0.77771465"
     inkscape:cx="397.31796"
     inkscape:cy="561.25984"
     inkscape:window-width="2475"
     inkscape:window-height="1376"
     inkscape:window-x="0"
     inkscape:window-y="0"
     inkscape:window-maximized="1"
     inkscape:current-layer="layer1" />
  <defs
     id="defs2" />
  <g
     inkscape:label="Layer 1"
     inkscape:groupmode="layer"
     id="layer1">
    <path
       style="fill:#ffffff;stroke-width:0.331845"
       d="M 11.172133,193.70877 C 9.5719007,192.8758 7.8918314,191.19569 7.3266871,189.86318 6.9534614,188.98317 6.873171,182.05493 6.8741919,150.82234 l 0.00127,-37.971 0.7025243,-1.15282 c 1.0281732,-1.68718 1.9689707,-2.61012 3.4741658,-3.40814 l 1.337334,-0.70904 28.585619,0.11233 c 18.448758,0.0724 30.850048,-0.0192 34.971233,-0.2562 10.433907,-0.60186 14.276807,0.15709 16.07141,3.17386 1.850024,3.11 1.812511,2.26745 1.808285,40.61235 -0.0036,31.1787 -0.06689,35.6438 -0.531184,37.38399 -0.708279,2.65484 -1.817674,4.22 -3.590373,5.0654 l -1.465018,0.69868 -37.925036,-0.0163 c -36.764406,-0.0147 -37.962277,-0.0339 -39.142364,-0.64818 z m 66.163814,-42.73426 0.08557,-27.09301 -27.166651,0.0843 -27.16664,0.0843 -0.08557,27.09298 -0.08557,27.09302 27.166638,-0.0843 27.166654,-0.0845 z m -29.048735,10.79528 c -7.069632,-1.23202 -10.837679,-7.47584 -8.698576,-14.41392 0.919217,-2.9814 2.620084,-4.91408 5.462589,-6.20707 1.834776,-0.83462 2.50039,-0.95937 5.11807,-0.95937 2.611198,0 3.258391,0.12059 4.895167,0.91252 2.220003,1.07406 4.416846,3.29743 5.38208,5.44711 1.503766,3.34908 1.017245,8.08984 -1.148448,11.19087 -2.152755,3.08251 -6.763603,4.77003 -11.010882,4.02986 z m 64.047048,32.1365 c -1.62733,-0.69821 -3.33696,-2.93271 -3.9852,-5.20872 -0.53028,-1.86181 -0.57749,-4.9923 -0.58489,-38.7711 -0.008,-40.79856 -0.15987,-38.07444 2.22614,-40.13846 2.17676,-1.88289 1.69704,-1.84873 27.52394,-1.96014 l 23.82135,-0.10289 v 16.47923 16.47919 h 8.50553 8.50552 l 0.10356,-16.27688 c 0.0571,-8.95232 0.22898,-16.40031 0.38225,-16.5511 0.15314,-0.15074 2.18434,-0.26414 4.51352,-0.25182 6.55382,0.0345 9.4029,1.17284 10.81659,4.32131 0.5987,1.33333 0.6246,2.46933 0.53621,23.50703 -0.0509,12.15828 -0.17857,22.24239 -0.28302,22.40912 -0.11413,0.18176 -10.89995,0.26934 -26.91598,0.21884 l -26.72581,-0.0842 -0.0916,-5.91421 c -0.0657,-4.2262 -0.20855,-5.98739 -0.50146,-6.17073 -0.22547,-0.14097 -3.89033,-0.25883 -8.14423,-0.26159 l -7.73427,-0.005 -0.2016,0.74105 c -0.11077,0.40764 -0.20366,11.37581 -0.20616,24.37373 l -0.005,23.63265 -5.2658,-0.0147 c -3.62938,-0.009 -5.58406,-0.14944 -6.29006,-0.45236 z m 28.27458,-6.53396 c 0.001,-3.84957 0.0985,-8.222 0.21673,-9.71655 l 0.21472,-2.71734 h 8.97748 8.9775 v 9.71654 9.71656 h -9.1942 -9.19422 l 0.001,-6.99921 z m 35.10517,0 c 9.9e-4,-3.84957 0.0984,-8.222 0.21673,-9.71655 l 0.21469,-2.71734 h 9.31183 9.31184 v 6.71195 c 0,7.38552 -0.14609,8.11351 -2.05726,10.258 -2.03934,2.28824 -2.77069,2.46315 -10.29982,2.46315 H 175.712 l 0.001,-6.99921 z M 115.8443,93.600942 c -4.54914,-0.465285 -6.41776,-2.009771 -7.48284,-6.184825 -0.51837,-2.03193 -0.57095,-5.424427 -0.58582,-37.804698 -0.0148,-27.139204 0.0811,-35.923402 0.39425,-37.052789 0.63586,-2.292434 1.55819,-3.8306711 2.90274,-4.8410458 l 1.23077,-0.9248605 38.39613,-0.086456 c 37.33278,-0.084047 38.43077,-0.068875 39.6448,0.5475407 0.68671,0.3486935 1.72992,1.1286906 2.31822,1.733321 2.24164,2.3038406 2.10655,-0.3220859 2.10655,40.9466626 v 37.398183 l -0.71535,1.499235 c -0.39344,0.82457 -1.17874,1.95577 -1.74514,2.513774 -2.18045,2.148078 -0.0638,2.028434 -36.48951,2.062579 -18.20454,0.01705 -34.0771,0.125737 -35.27233,0.241547 -1.19525,0.115755 -3.31135,0.0941 -4.70247,-0.04819 z M 178.38667,49.94079 V 22.767391 H 151.30556 124.22445 V 49.94079 77.114198 h 27.08111 27.08111 z m -31.18754,10.579127 c -3.16117,-1.157165 -5.51413,-3.824919 -6.41412,-7.272241 -0.64602,-2.474599 -0.64522,-3.816456 0.004,-6.28439 1.23579,-4.699798 4.6157,-7.457754 9.71129,-7.924325 4.68645,-0.429084 8.27011,1.455278 10.22902,5.378669 1.03158,2.066078 1.10794,2.447035 1.10587,5.518105 -0.001,3.873455 -0.57757,5.454255 -2.87838,7.91333 -2.1827,2.332794 -3.5597,2.902651 -7.31661,3.027886 -2.14669,0.07158 -3.58608,-0.0442 -4.44076,-0.357034 z M 15.064145,93.320175 C 11.705043,92.991751 8.7447551,91.497744 7.5143988,89.50993 6.8950179,88.509236 6.8754065,87.301525 6.8741919,50.079604 l -0.00124,-38.39801 1.0535122,-1.566908 C 8.5058778,9.2528915 9.5856211,8.1528955 10.325879,7.670252 l 1.345929,-0.8775283 38.305832,-0.09178 c 21.068198,-0.050464 38.632742,-0.013511 39.032295,0.082257 2.034777,0.4873938 3.805643,3.05542 4.463479,6.4726953 0.210414,1.092955 0.341327,14.875041 0.35154,36.999546 0.01445,31.363965 -0.04298,35.476065 -0.520558,37.234047 -0.75701,2.786964 -1.90906,4.364675 -3.791489,5.192397 -1.553077,0.682915 -1.809743,0.687796 -37.504767,0.711985 -19.767546,0.01335 -36.392336,-0.0198 -36.943995,-0.0737 z M 77.417578,49.938859 V 22.763517 l -27.164696,0.08427 -27.164706,0.08428 -0.08557,27.091064 -0.08557,27.09106 H 50.16728 77.41751 Z M 48.040173,60.958776 c -3.397884,-0.679954 -6.402069,-3.054315 -7.824636,-6.18419 -1.086049,-2.389487 -1.189251,-6.582678 -0.224103,-9.105453 3.291178,-8.602699 16.091462,-8.963204 20.27465,-0.571001 0.815495,1.636022 0.936045,2.260653 0.934578,4.842658 -0.0025,3.550461 -0.654317,5.227988 -2.988922,7.686847 -2.541659,2.67693 -6.67553,4.030751 -10.171567,3.331139 z"
       id="path383"
       sodipodi:nodetypes="csscsscccscsscccccccccccccsssssssscscccccccccscsccccccccccccccccccccccccccccccssscccssccscsssscssscssccccccccccscsscsscccsscsscccsscscccccccccccsssscss" />
  </g>
</svg>
