<?xml version="1.0" encoding="UTF-8" standalone="no"?>
<!-- Created with Inkscape (http://www.inkscape.org/) -->

<svg
   width="200mm"
   height="200mm"
   viewBox="0 0 200 200"
   version="1.1"
   id="svg5"
   inkscape:version="1.1.2 (0a00cf5339, 2022-02-04)"
   sodipodi:docname="qrscaner.svg"
   xmlns:inkscape="http://www.inkscape.org/namespaces/inkscape"
   xmlns:sodipodi="http://sodipodi.sourceforge.net/DTD/sodipodi-0.dtd"
   xmlns="http://www.w3.org/2000/svg"
   xmlns:svg="http://www.w3.org/2000/svg">
  <sodipodi:namedview
     id="namedview7"
     pagecolor="#ffffff"
     bordercolor="#666666"
     borderopacity="1.0"
     inkscape:pageshadow="2"
     inkscape:pageopacity="0.0"
     inkscape:pagecheckerboard="0"
     inkscape:document-units="mm"
     showgrid="false"
     inkscape:zoom="0.77771465"
     inkscape:cx="397.31796"
     inkscape:cy="561.25984"
     inkscape:window-width="2475"
     inkscape:window-height="1376"
     inkscape:window-x="0"
     inkscape:window-y="0"
     inkscape:window-maximized="1"
     inkscape:current-layer="layer1" />
  <defs
     id="defs2" />
  <g
     inkscape:label="Layer 1"
     inkscape:groupmode="layer"
     id="layer1">
    <path
       style="fill:#ffffff;stroke-width:0.402476"
       d="m 14.511418,194.14601 c -2.763263,-0.83876 -4.8863007,-2.6098 -6.2971316,-5.25303 -0.6588181,-1.23433 -0.7667988,-2.56183 -0.8790587,-10.80693 -0.087865,-6.45808 0.017512,-9.7501 0.3367337,-10.5193 0.9762886,-2.35198 4.5299536,-2.43943 5.5810876,-0.13738 0.294217,0.64439 0.455161,4.12428 0.455161,9.84132 v 8.84445 l 0.988958,0.98685 0.988943,0.98685 h 8.863239 c 5.729179,0 9.21648,0.1606 9.862218,0.45421 2.237658,1.01738 2.237658,4.507 0,5.52439 -1.136866,0.51689 -18.233734,0.58437 -19.90015,0.0786 z m 152.429672,-0.0885 c -1.31815,-0.65643 -1.95241,-2.47842 -1.35977,-3.90613 0.78508,-1.89132 1.72571,-2.0624 11.34023,-2.0624 h 8.86324 l 0.98893,-0.98685 0.98895,-0.98684 v -8.84445 c 0,-5.71704 0.16096,-9.19694 0.45517,-9.84133 1.05112,-2.30208 4.60481,-2.21463 5.58109,0.13737 0.31929,0.7692 0.42466,4.06123 0.33674,10.51931 -0.11894,8.72975 -0.18997,9.51437 -0.99762,11.00795 -1.01758,1.88177 -2.59587,3.42816 -4.56956,4.47716 -1.24796,0.66328 -2.52248,0.7595 -11.07986,0.83645 -6.32941,0.0569 -9.97294,-0.0639 -10.54754,-0.35022 z M 39.881614,164.66947 c -1.313297,-0.66083 -2.041996,-1.38801 -2.704256,-2.6985 l -0.906529,-1.7939 v -23.55055 -23.55055 l 0.906529,-1.79391 c 0.66226,-1.3105 1.390959,-2.03767 2.704256,-2.69851 l 1.797709,-0.90461 h 23.600581 23.600581 l 1.797726,0.90461 c 1.313281,0.66084 2.041995,1.38801 2.704239,2.69851 l 0.906533,1.79391 v 23.55055 23.55055 l -0.906533,1.7939 c -0.662244,1.31049 -1.390958,2.03767 -2.704239,2.6985 l -1.797726,0.90463 H 65.279904 41.679323 Z m 47.96091,-28.04295 V 114.11173 H 65.279904 42.717285 v 22.51479 22.51477 h 22.562619 22.56262 z m -33.697232,12.39535 c -0.473313,-0.22868 -1.062569,-0.8582 -1.309444,-1.39887 -0.614003,-1.34473 -0.615342,-20.6453 -0.0015,-21.9896 0.785042,-1.71916 1.804075,-1.87248 12.44567,-1.87248 10.641595,0 11.660628,0.15332 12.445594,1.87248 0.612541,1.34156 0.612541,20.64467 0,21.98622 -0.246037,0.53885 -0.889141,1.1806 -1.42912,1.42609 -1.284364,0.58396 -20.936969,0.5628 -22.151102,-0.0239 z M 71.72636,136.62652 v -6.43281 h -6.446456 -6.446455 v 6.43281 6.43279 h 6.446455 6.446456 z m 51.95925,15.17738 c -1.31329,-0.66086 -2.04199,-1.38802 -2.70424,-2.69852 -0.87228,-1.7261 -0.90653,-2.19772 -0.90653,-12.47886 0,-10.28115 0.0343,-10.75277 0.90653,-12.47887 0.66225,-1.31049 1.39095,-2.03766 2.70424,-2.6985 1.72978,-0.87044 2.20239,-0.90463 12.50539,-0.90463 10.30298,0 10.77558,0.0342 12.50535,0.90463 1.3133,0.66084 2.04201,1.38801 2.70426,2.6985 0.87226,1.7261 0.90653,2.19772 0.90653,12.47887 0,10.28114 -0.0343,10.75276 -0.90653,12.47886 -0.66225,1.3105 -1.39096,2.03766 -2.70426,2.69852 -1.72977,0.87041 -2.20237,0.9046 -12.50535,0.9046 -10.303,0 -10.77561,-0.0342 -12.50539,-0.9046 z m 22.17507,-15.17738 v -9.64919 h -9.66968 -9.6697 v 9.64919 9.64919 h 9.6697 9.66968 z M 39.881614,93.908747 C 38.568317,93.247906 37.839618,92.520736 37.177358,91.210224 L 36.270829,89.416325 V 65.865776 42.315227 l 0.906529,-1.793899 c 0.66226,-1.310497 1.390959,-2.037666 2.704256,-2.698506 l 1.797709,-0.904624 h 23.600581 23.600581 l 1.797726,0.904624 c 1.313281,0.66084 2.041995,1.388009 2.704239,2.698506 l 0.906533,1.793899 v 23.550549 23.550549 l -0.906533,1.793899 c -0.662244,1.310512 -1.390958,2.037682 -2.704239,2.698523 l -1.797726,0.904607 H 65.279904 41.679323 Z M 87.842524,65.865776 V 43.351003 H 65.279904 42.717285 v 22.514773 22.514788 h 22.562619 22.56262 z M 54.145292,78.261129 c -1.594158,-0.770263 -1.758315,-1.927467 -1.758315,-12.395353 0,-10.619035 0.153649,-11.635908 1.876453,-12.419209 1.344423,-0.611243 20.688526,-0.611243 22.032949,0 1.722804,0.783301 1.876453,1.800174 1.876453,12.419209 0,10.619036 -0.153649,11.635909 -1.876453,12.419211 -1.284363,0.58395 -20.93697,0.562783 -22.151087,-0.02385 z M 71.72636,65.865776 v -6.43279 h -6.446456 -6.446455 v 6.43279 6.43279 h 6.446455 6.446456 z m 39.06634,28.042971 c -1.3133,-0.660841 -2.04201,-1.388011 -2.70425,-2.698523 l -0.90653,-1.793899 V 65.865776 42.315227 l 0.90653,-1.793899 c 0.66224,-1.310497 1.39095,-2.037666 2.70425,-2.698506 l 1.79771,-0.904624 h 23.60059 23.60058 l 1.7977,0.904624 c 1.31329,0.66084 2.04199,1.388009 2.70424,2.698506 l 0.90654,1.793899 v 23.550549 23.550549 l -0.90654,1.793899 c -0.66225,1.310512 -1.39095,2.037682 -2.70424,2.698523 l -1.7977,0.904607 H 136.191 112.59041 Z M 158.75359,65.865776 V 43.351003 H 136.191 113.62837 v 22.514773 22.514788 h 22.56263 22.56259 z m -33.69722,12.395353 c -1.59415,-0.770263 -1.75831,-1.927467 -1.75831,-12.395353 0,-10.619035 0.15365,-11.635908 1.87646,-12.419209 1.34442,-0.611243 20.68852,-0.611243 22.03294,0 1.72281,0.783301 1.87645,1.800174 1.87645,12.419209 0,10.619036 -0.15364,11.635909 -1.87645,12.419211 -1.28436,0.58395 -20.93697,0.562783 -22.15109,-0.02385 z m 17.58108,-12.395353 v -6.43279 h -6.44645 -6.44646 v 6.43279 6.43279 h 6.44646 6.44645 z M 9.0027699,36.440267 C 7.3795712,35.657178 7.1996998,34.359187 7.3352277,24.406243 7.4474571,16.16114 7.5554683,14.833646 8.2142864,13.599325 9.2655115,11.629817 10.815175,10.054864 12.700962,9.039445 14.197694,8.2335095 14.983999,8.1625521 23.732284,8.0439415 c 6.47181,-0.087739 9.770836,0.017414 10.541669,0.3360275 2.356969,0.9742189 2.44459,4.520352 0.137661,5.569253 -0.645753,0.293595 -4.133056,0.454203 -9.862233,0.454203 h -8.86324 l -0.988943,0.986848 -0.988943,0.98685 v 8.84445 c 0,9.394495 -0.180953,10.479353 -1.876453,11.250239 -1.174205,0.533882 -1.66841,0.528366 -2.8289864,-0.03161 z m 180.5182101,0.0076 c -1.56784,-0.757546 -1.75831,-1.973648 -1.75831,-11.226398 v -8.84445 l -0.98895,-0.98685 -0.98893,-0.986848 h -8.86324 c -5.72918,0 -9.21648,-0.160608 -9.86224,-0.454203 -2.30697,-1.048901 -2.21934,-4.5950345 0.13766,-5.5692534 0.77083,-0.3186118 4.06986,-0.4237728 10.54167,-0.3360275 8.74829,0.1186173 9.53457,0.1895679 11.03132,0.9955035 1.88579,1.0154184 3.43546,2.5903724 4.48668,4.5598804 0.65882,1.23432 0.7668,2.561815 0.87905,10.806918 0.13751,10.097575 -0.0349,11.261693 -1.78578,12.057759 -1.18825,0.540248 -1.68342,0.537437 -2.82889,-0.01611 z"
       id="path51" />
  </g>
</svg>
