<?xml version="1.0" encoding="UTF-8" standalone="no"?>
<!-- Created with Inkscape (http://www.inkscape.org/) -->

<svg
   width="200mm"
   height="200mm"
   viewBox="0 0 200 200"
   version="1.1"
   id="svg5"
   inkscape:version="1.1.2 (0a00cf5339, 2022-02-04)"
   sodipodi:docname="drawing.svg"
   xmlns:inkscape="http://www.inkscape.org/namespaces/inkscape"
   xmlns:sodipodi="http://sodipodi.sourceforge.net/DTD/sodipodi-0.dtd"
   xmlns="http://www.w3.org/2000/svg"
   xmlns:svg="http://www.w3.org/2000/svg">
  <sodipodi:namedview
     id="namedview7"
     pagecolor="#ffffff"
     bordercolor="#666666"
     borderopacity="1.0"
     inkscape:pageshadow="2"
     inkscape:pageopacity="0.0"
     inkscape:pagecheckerboard="0"
     inkscape:document-units="mm"
     showgrid="false"
     inkscape:zoom="0.77771465"
     inkscape:cx="456.46562"
     inkscape:cy="649.98133"
     inkscape:window-width="2475"
     inkscape:window-height="1376"
     inkscape:window-x="0"
     inkscape:window-y="0"
     inkscape:window-maximized="1"
     inkscape:current-layer="layer1" />
  <defs
     id="defs2" />
  <g
     inkscape:label="Layer 1"
     inkscape:groupmode="layer"
     id="layer1">
    <path
       style="fill:#ffffff;stroke-width:0.198883"
       d="m 51.634779,194.86076 c -1.433098,-0.23246 -4.546581,-1.71225 -5.610291,-2.66649 -0.603531,-0.54141 -5.028048,-7.56112 -16.362299,-25.95958 -8.544303,-13.86962 -15.796196,-25.73426 -16.115327,-26.36587 -0.871139,-1.72409 -1.228538,-3.30499 -1.119221,-4.95072 0.263375,-3.9648 4.008934,-7.24257 9.96905,-8.72397 1.112866,-0.2766 13.632638,-3.44872 27.821709,-7.04915 14.189083,-3.60042 26.51057,-6.63972 27.381096,-6.75399 2.20142,-0.28897 5.241978,-0.25361 6.871058,0.0799 4.521993,0.92575 6.549747,4.33511 5.591824,9.4018 -0.123536,0.65337 -1.678752,4.55917 -3.561142,8.94352 -1.838003,4.28097 -3.309613,7.81472 -3.270225,7.85276 0.421441,0.40717 10.170471,3.34675 14.941924,4.50536 10.179035,2.47172 18.298685,3.49529 27.619375,3.48173 9.7396,-0.0142 17.05948,-1.12647 25.49481,-3.87407 10.41619,-3.39283 19.01076,-8.58284 27.02433,-16.3192 4.99283,-4.82011 9.00281,-9.91873 12.22997,-15.5502 1.51841,-2.64964 1.51348,-2.71391 0.19663,2.57009 -4.07358,16.34557 -10.4855,29.86336 -19.11986,40.30897 -13.4325,16.2503 -31.79468,25.24914 -55.53818,27.21787 -3.5993,0.29844 -13.06886,0.30131 -16.895395,0.005 -10.134869,-0.78449 -20.036837,-2.60145 -29.091116,-5.33806 -1.601456,-0.48404 -2.751869,-0.73865 -2.849477,-0.63067 -0.09001,0.0996 -1.507495,3.39191 -3.14991,7.31627 -3.134779,7.49018 -3.485534,8.20882 -4.684958,9.59869 -2.040303,2.36429 -4.778873,3.38579 -7.774375,2.8999 z M 8.259295,85.97405 c 0.07249,-0.36847 0.626461,-2.4293 1.231084,-4.579631 2.242524,-7.975466 4.832381,-14.762345 8.131031,-21.307811 4.800793,-9.526146 9.69097,-16.307961 16.498988,-22.881172 3.510541,-3.389457 5.927453,-5.378001 9.534004,-7.844203 9.360879,-6.401072 20.835693,-10.67979 33.475191,-12.482185 5.87596,-0.837915 15.802645,-1.136266 22.358542,-0.671997 10.540705,0.746459 21.802315,2.928374 31.719505,6.145591 1.75427,0.569101 3.22618,0.977539 3.27089,0.907631 0.0447,-0.0699 1.54585,-3.372644 3.33583,-7.339423 1.79,-3.966779 3.5347,-7.6341285 3.87711,-8.1496656 0.98535,-1.4834969 3.01407,-3.1961762 4.37184,-3.6907702 2.19765,-0.800534 5.11626,-0.483087 7.55071,0.821267 2.36966,1.2696343 2.90893,1.7848123 4.20255,4.0147763 0.67114,1.1569475 7.51065,12.9134405 15.19888,26.1255255 7.68824,13.212091 14.22313,24.603963 14.52198,25.315249 0.69978,1.665567 0.87494,4.150808 0.40307,5.719007 -0.67055,2.228463 -2.92267,4.412583 -5.96023,5.780245 -1.20106,0.540774 -6.77057,1.873495 -29.64857,7.094562 -29.48059,6.727854 -30.92396,7.013114 -34.12712,6.744564 -5.22517,-0.43808 -7.83207,-2.49163 -8.21489,-6.471178 -0.24734,-2.571007 0.17284,-3.841248 4.09102,-12.367857 1.94504,-4.23273 3.50314,-7.728046 3.46244,-7.767367 -0.0407,-0.03933 -1.83405,-0.69122 -3.98524,-1.448677 C 86.141382,47.986963 61.815676,47.533576 41.64362,56.300185 33.873516,59.677008 27.482119,63.979342 21.064261,70.153063 15.99418,75.030289 12.597199,79.234049 9.452869,84.52217 8.068954,86.84962 8.092778,86.82064 8.259295,85.97405 Z"
       id="path393" />
  </g>
</svg>
