<svg width="20" height="20" viewBox="0 0 20 20" fill="none" xmlns="http://www.w3.org/2000/svg">
<g clip-path="url(#clip0_14:35)">
<path d="M9.99999 4.16667C11.1506 4.16667 12.0833 3.23393 12.0833 2.08333C12.0833 0.93274 11.1506 0 9.99999 0C8.8494 0 7.91666 0.93274 7.91666 2.08333C7.91666 3.23393 8.8494 4.16667 9.99999 4.16667Z" fill="white"/>
<path d="M9.99999 12.0833C11.1506 12.0833 12.0833 11.1506 12.0833 10C12.0833 8.84941 11.1506 7.91667 9.99999 7.91667C8.8494 7.91667 7.91666 8.84941 7.91666 10C7.91666 11.1506 8.8494 12.0833 9.99999 12.0833Z" fill="white"/>
<path d="M9.99999 20C11.1506 20 12.0833 19.0673 12.0833 17.9167C12.0833 16.7661 11.1506 15.8333 9.99999 15.8333C8.8494 15.8333 7.91666 16.7661 7.91666 17.9167C7.91666 19.0673 8.8494 20 9.99999 20Z" fill="white"/>
</g>
<defs>
<clipPath id="clip0_14:35">
<rect width="20" height="20" fill="white"/>
</clipPath>
</defs>
</svg>
