<svg width="85" height="85" viewBox="0 0 85 85" fill="none" xmlns="http://www.w3.org/2000/svg">
<path d="M58.5 6.37479C53.609 4.20532 48.1952 3 42.5 3C20.6848 3 3 20.6848 3 42.5C3 64.3152 20.6848 82 42.5 82C64.3152 82 82 64.3152 82 42.5C82 36.61 80.7108 31.021 78.3992 26M65.5 10.3832C68.1537 12.287 70.5617 14.5115 72.6673 17" stroke="white" stroke-width="6"/>
<path d="M33.8963 70.5417C37.6255 71.7766 41.6675 72.2696 45.8288 71.8617C61.7687 70.2994 73.4241 56.1111 71.8617 40.1712C70.2994 24.2313 56.1111 12.576 40.1712 14.1383C24.2313 15.7006 12.576 29.8889 14.1383 45.8288C14.5602 50.1325 15.9024 54.1239 17.951 57.6271M28.4945 68.1141C26.4192 66.9131 24.5005 65.4602 22.7837 63.7927" stroke="white" stroke-width="6"/>
<circle cx="42" cy="43" r="18" fill="white"/>
</svg>
