<?xml version="1.0" encoding="UTF-8" standalone="no"?>
<!-- Created with Inkscape (http://www.inkscape.org/) -->

<svg
   width="200mm"
   height="200mm"
   viewBox="0 0 200 200"
   version="1.1"
   id="svg5"
   inkscape:version="1.1.2 (0a00cf5339, 2022-02-04)"
   sodipodi:docname="search.svg"
   xmlns:inkscape="http://www.inkscape.org/namespaces/inkscape"
   xmlns:sodipodi="http://sodipodi.sourceforge.net/DTD/sodipodi-0.dtd"
   xmlns="http://www.w3.org/2000/svg"
   xmlns:svg="http://www.w3.org/2000/svg">
  <sodipodi:namedview
     id="namedview7"
     pagecolor="#ffffff"
     bordercolor="#666666"
     borderopacity="1.0"
     inkscape:pageshadow="2"
     inkscape:pageopacity="0.0"
     inkscape:pagecheckerboard="0"
     inkscape:document-units="mm"
     showgrid="false"
     inkscape:zoom="0.90509668"
     inkscape:cx="120.42912"
     inkscape:cy="429.23591"
     inkscape:window-width="2475"
     inkscape:window-height="1376"
     inkscape:window-x="0"
     inkscape:window-y="0"
     inkscape:window-maximized="1"
     inkscape:current-layer="layer1" />
  <defs
     id="defs2" />
  <g
     inkscape:label="Layer 1"
     inkscape:groupmode="layer"
     id="layer1">
    <path
       style="fill:#ffffff;stroke-width:0.0520913"
       d="m 19.785264,199.95084 c -3.570595,-0.25299 -7.016429,-1.38848 -10.0017486,-3.29586 -4.3297102,-2.76631 -7.500785,-7.00913 -8.93986378,-11.96128 -1.314691,-4.5241 -1.08668156,-9.4347 0.64091178,-13.80384 0.8712507,-2.20343 1.9600636,-4.02018 3.6057917,-6.01639 0.4141719,-0.50238 47.9197409,-48.05302 48.0074649,-48.05302 0.02877,0 1.271435,1.21887 2.761433,2.70861 l 2.709116,2.70862 9.516579,-9.51939 9.516583,-9.51938 -0.23997,-0.36463 C 76.889348,102.11675 76.016862,100.68137 75.445948,99.682842 70.22259,90.547004 67.29038,80.41267 66.768836,69.693027 c -0.0806,-1.656444 -0.03576,-6.044057 0.07734,-7.56708 C 67.358367,55.228875 68.762401,48.85825 71.122544,42.722426 75.105121,32.368676 81.600273,23.199333 90.110108,15.9173 98.98302,8.3245741 109.89384,3.1485211 121.39163,1.0774735 c 3.51292,-0.63275912 6.46329,-0.93101801 10.38189,-1.04951033 7.1534,-0.2163079 14.58147,0.82499412 21.61925,3.03068663 18.41445,5.7711908 33.56299,19.4603672 41.21596,37.2453042 3.03622,7.055934 4.77157,14.380053 5.29386,22.342896 0.16522,2.519096 0.11611,6.504417 -0.11577,9.402247 -0.61552,7.691525 -2.60568,15.352845 -5.80489,22.346604 -5.55879,12.152079 -14.77845,22.467349 -26.2619,29.382739 -9.44841,5.68988 -20.00271,8.88789 -31.18538,9.44933 -1.35255,0.0679 -5.04678,0.068 -6.36545,0 -7.63371,-0.39266 -14.72916,-1.93892 -21.69656,-4.72816 -3.76322,-1.5065 -7.80136,-3.58917 -11.069621,-5.70915 l -0.599063,-0.38858 -9.51983,9.51534 -9.519846,9.51534 2.708759,2.70897 c 1.489802,1.48996 2.708734,2.73246 2.708734,2.76114 0,0.0677 -47.366596,47.41402 -47.846945,47.8265 -2.454086,2.10727 -5.102871,3.55433 -8.100397,4.42533 -2.357127,0.68491 -5.013133,0.96878 -7.449225,0.79616 z m 117.039466,-79.2525 c 14.93087,-0.96841 28.53825,-7.88536 38.16601,-19.40072 6.57539,-7.86451 10.78926,-17.536779 12.0845,-27.73792 0.27107,-2.13501 0.38659,-3.812683 0.4304,-6.2508 0.12797,-7.123772 -1.23942,-14.40739 -3.95568,-21.070405 -3.71015,-9.101097 -9.82221,-17.013058 -17.73027,-22.951594 -9.54696,-7.169242 -21.27605,-10.991202 -33.0979,-10.78501 -3.08965,0.05388 -5.47092,0.261177 -8.2306,0.716474 -15.37394,2.536377 -28.848458,11.545898 -37.153344,24.841999 -6.283065,10.059175 -9.081973,22.144553 -7.877642,34.014774 0.848151,8.359493 3.552194,16.259466 7.987677,23.336316 3.029382,4.833416 6.959768,9.305996 11.439848,13.017966 5.483061,4.54298 11.929241,8.00309 18.738131,10.058 6.22681,1.87924 12.743,2.62964 19.19887,2.21092 z M 92.84447,49.154673 c -0.656349,-0.130493 -1.350106,-0.524899 -1.772431,-1.007653 -0.289645,-0.331104 -0.562968,-0.846379 -0.670956,-1.264918 -0.09783,-0.379418 -0.107907,-1.148298 -0.02004,-1.53818 0.116107,-0.515227 1.240372,-2.578294 2.401123,-4.406165 3.152487,-4.964293 7.14899,-9.288471 11.783634,-12.749757 7.97988,-5.959622 17.69135,-9.337301 27.42671,-9.539101 1.6798,-0.0348 1.85877,-0.0108 2.52648,0.337129 0.45896,0.239252 1.03172,0.802229 1.2648,1.243209 0.9712,1.837543 -0.0715,4.097154 -2.08334,4.514853 -0.23447,0.04872 -0.81773,0.09 -1.52562,0.107884 -5.96172,0.151445 -11.85054,1.615895 -17.29471,4.300909 -4.32552,2.133306 -7.90271,4.725316 -11.36466,8.234797 -2.85605,2.895249 -4.993895,5.786767 -6.948374,9.397939 -0.529456,0.978215 -0.633436,1.135421 -0.984932,1.489086 -0.288168,0.289931 -0.497203,0.446416 -0.783687,0.586677 -0.617123,0.302147 -1.353464,0.41266 -1.953995,0.293255 z"
       id="path134" />
  </g>
</svg>
