<svg width="71" height="68" viewBox="0 0 71 68" fill="none" xmlns="http://www.w3.org/2000/svg">
<path d="M69.8959 26.3479C69.7855 25.8397 69.568 25.3608 69.2579 24.9434C68.9477 24.526 68.5521 24.1795 68.0973 23.9271L61.1718 20.0826C60.8598 19.4957 60.5279 18.9199 60.1761 18.355L60.3095 10.427C60.3183 9.90691 60.2159 9.39092 60.0093 8.91352C59.8027 8.43612 59.4966 8.0083 59.1115 7.65863C55.3759 4.26079 50.9506 1.7097 46.1382 0.179772C45.6429 0.0211086 45.1195 -0.0300075 44.6029 0.0298398C44.0863 0.0896871 43.5884 0.259119 43.1425 0.526811L36.3504 4.60231C35.6856 4.57915 35.0209 4.57865 34.3562 4.60079L27.5571 0.521022C27.111 0.253311 26.6129 0.0839211 26.0961 0.0241783C25.5793 -0.0355645 25.0557 0.0157162 24.5602 0.174592C19.75 1.71089 15.3282 4.26769 11.597 7.67021C11.212 8.01992 10.9061 8.44772 10.6996 8.92506C10.4931 9.40239 10.3909 9.91829 10.3996 10.4383L10.533 18.358C10.181 18.9219 9.8483 19.4974 9.53488 20.0844L2.60232 23.9326C2.14737 24.1851 1.75155 24.5318 1.44133 24.9495C1.13111 25.3672 0.913637 25.8464 0.803448 26.3549C-0.271196 31.2888 -0.267766 36.3966 0.813503 41.329C0.923816 41.8373 1.14132 42.3162 1.45147 42.7337C1.76163 43.1512 2.15731 43.4977 2.61207 43.7501L9.53762 47.5943C9.84962 48.1814 10.1815 48.7573 10.5333 49.3222L10.3999 57.2502C10.3912 57.7703 10.4935 58.2863 10.7001 58.7637C10.9067 59.2411 11.2128 59.6689 11.5979 60.0186C15.3334 63.4164 19.7586 65.9675 24.5709 67.4974C25.0662 67.656 25.5897 67.707 26.1063 67.6472C26.623 67.5873 27.1209 67.418 27.5669 67.1504L34.359 63.0749C35.0235 63.0977 35.6896 63.0987 36.3532 63.0764L43.1523 67.1559C43.5984 67.4236 44.0965 67.593 44.6133 67.6528C45.1301 67.7125 45.6537 67.6614 46.1492 67.5026C50.9594 65.9663 55.3812 63.4095 59.1124 60.007C59.4974 59.6573 59.8033 59.2295 60.0098 58.7521C60.2163 58.2748 60.3186 57.7589 60.3098 57.2389L60.1764 49.3189C60.5284 48.7552 60.8611 48.1798 61.1745 47.5928L68.1071 43.7446C68.562 43.4921 68.9577 43.1454 69.2679 42.7277C69.5781 42.3099 69.7955 41.8308 69.9057 41.3223C70.9804 36.3883 70.9771 31.2804 69.8959 26.3479ZM63.0566 38.1844L56.6481 41.7419C55.9877 42.1085 55.457 42.6706 55.1289 43.3509C54.652 44.3394 54.1017 45.2908 53.4827 46.197C53.0556 46.8221 52.8331 47.5644 52.8459 48.3213L52.9693 55.6466C50.705 57.4854 48.1646 58.9553 45.442 60.0021L39.1569 56.231C38.5887 55.89 37.9384 55.7099 37.2758 55.71C37.1852 55.71 37.0945 55.7132 37.0037 55.7197C35.9092 55.8009 34.8102 55.8001 33.7158 55.7173C32.961 55.6599 32.2071 55.8382 31.558 56.2276L25.2753 59.9972C22.5509 58.9556 20.008 57.4905 17.7404 55.6561L17.8635 48.3277C17.8764 47.5725 17.655 46.8319 17.2298 46.2077C16.612 45.3004 16.063 44.3481 15.5875 43.3589C15.2599 42.6765 14.7285 42.1127 14.0668 41.7452L7.66105 38.1889C7.2007 35.3086 7.19793 32.3737 7.65282 29.4925L14.0613 25.9347C14.7217 25.5682 15.2524 25.0062 15.5805 24.326C16.0573 23.3375 16.6075 22.3861 17.2264 21.4799C17.6535 20.8548 17.876 20.1125 17.8632 19.3556L17.7401 12.0303C20.0044 10.1915 22.5446 8.72161 25.2671 7.67478L31.5525 11.4459C32.2003 11.8345 32.9524 12.0131 33.7057 11.9572C34.8001 11.876 35.8991 11.8768 36.9933 11.9596C37.7482 12.0177 38.5025 11.8393 39.1514 11.4492L45.4338 7.67965C48.1583 8.72123 50.7013 10.1863 52.969 12.0208L52.8459 19.3492C52.833 20.1044 53.0544 20.845 53.4796 21.4692C54.0973 22.3765 54.6462 23.3288 55.1216 24.318C55.4493 25.0004 55.9808 25.5642 56.6426 25.9317L63.0484 29.4877C63.5087 32.368 63.5115 35.3032 63.0566 38.1844Z" fill="white"/>
<circle cx="35.3535" cy="33.838" r="11" stroke="white" stroke-width="6"/>
</svg>
