<svg width="65" height="65" viewBox="0 0 65 65" fill="none" xmlns="http://www.w3.org/2000/svg">
<path d="M32.265 0.011201C32.1593 0.0302624 32.0549 0.0561081 31.9525 0.0885773C31.3881 0.214879 30.885 0.532675 30.529 0.987811C30.1729 1.44295 29.986 2.00726 30 2.58458V5.08059H7.5C5.51088 5.08059 3.60322 5.86951 2.1967 7.27378C0.790176 8.67806 0 10.5827 0 12.5686L0 45.0167C0 49.1501 3.36 52.5047 7.5 52.5047H30V53.4407L16.405 60.2274C15.8043 60.517 15.3434 61.033 15.1238 61.6619C14.9041 62.2908 14.9437 62.981 15.2338 63.5808C15.5238 64.1805 16.0407 64.6407 16.6706 64.86C17.3004 65.0793 17.9918 65.0398 18.5925 64.7501L30 59.0568V59.9928C30 60.6547 30.2634 61.2896 30.7322 61.7577C31.2011 62.2258 31.837 62.4888 32.5 62.4888C33.163 62.4888 33.7989 62.2258 34.2678 61.7577C34.7366 61.2896 35 60.6547 35 59.9928V59.0568L46.4075 64.7501C47.0082 65.0398 47.6996 65.0793 48.3294 64.86C48.9593 64.6407 49.4762 64.1805 49.7663 63.5808C50.0563 62.981 50.0959 62.2908 49.8762 61.6619C49.6566 61.033 49.1957 60.517 48.595 60.2274L35 53.4407V52.5047H57.5C61.64 52.5047 65 49.1501 65 45.0167V12.5686C65 10.5827 64.2098 8.67806 62.8033 7.27378C61.3968 5.86951 59.4891 5.08059 57.5 5.08059H35V2.58458C35.0126 2.22965 34.9492 1.87611 34.8141 1.54758C34.6789 1.21906 34.4751 0.923121 34.2162 0.679537C33.9573 0.435952 33.6493 0.250332 33.3129 0.135079C32.9764 0.0198253 32.6191 -0.0224078 32.265 0.011201ZM5 12.5686H60V45.0167H5V12.5686ZM52.1875 15.0646C51.6275 15.1247 51.1042 15.3719 50.7025 15.766L42.5 23.9579L36.7975 18.2595C36.5244 17.9797 36.1893 17.7679 35.8193 17.641C35.4492 17.514 35.0545 17.4756 34.6668 17.5288C34.2792 17.582 33.9095 17.7253 33.5874 17.9471C33.2653 18.169 32.9999 18.4632 32.8125 18.8061L25.39 31.7554L22.3425 24.1101C22.1945 23.7154 21.9488 23.3645 21.6283 23.0902C21.3078 22.8158 20.9229 22.627 20.5096 22.5413C20.0963 22.4555 19.6679 22.4757 19.2645 22.5999C18.8611 22.7241 18.4957 22.9483 18.2025 23.2515L10.7025 30.7395C10.2251 31.2158 9.95678 31.862 9.95655 32.5358C9.95632 33.2096 10.2242 33.8559 10.7013 34.3325C11.1783 34.8092 11.8255 35.0771 12.5004 35.0773C13.1753 35.0775 13.8226 34.8101 14.3 34.3338L19.065 29.5764L22.66 38.4672C22.8297 38.9131 23.1238 39.3011 23.5074 39.5853C23.8911 39.8695 24.3484 40.038 24.825 40.0708C25.3016 40.1037 25.7777 39.9994 26.1968 39.7705C26.6159 39.5416 26.9606 39.1976 27.19 38.7792L35.55 24.1925L40.705 29.3418C40.9381 29.5826 41.2174 29.7741 41.5262 29.9049C41.835 30.0356 42.1671 30.103 42.5025 30.103C42.8379 30.103 43.17 30.0356 43.4788 29.9049C43.7876 29.7741 44.0669 29.5826 44.3 29.3418L54.3 19.3578C54.6949 18.9927 54.9613 18.5102 55.0596 17.9819C55.1579 17.4537 55.0828 16.9078 54.8455 16.4256C54.6082 15.9433 54.2213 15.5504 53.7425 15.3052C53.2636 15.06 52.7182 14.9756 52.1875 15.0646Z" fill="white"/>
</svg>
