<?xml version="1.0" encoding="UTF-8" standalone="no"?>
<!-- Generator: Adobe Illustrator 19.0.0, SVG Export Plug-In . SVG Version: 6.00 Build 0)  -->

<svg
   version="1.1"
   id="Layer_1"
   x="0px"
   y="0px"
   viewBox="0 0 459 459"
   style="enable-background:new 0 0 459 459;"
   xml:space="preserve"
   sodipodi:docname="user-svgrepo-com.svg"
   inkscape:version="1.1.2 (0a00cf5339, 2022-02-04)"
   xmlns:inkscape="http://www.inkscape.org/namespaces/inkscape"
   xmlns:sodipodi="http://sodipodi.sourceforge.net/DTD/sodipodi-0.dtd"
   xmlns="http://www.w3.org/2000/svg"
   xmlns:svg="http://www.w3.org/2000/svg"><defs
   id="defs44" /><sodipodi:namedview
   id="namedview42"
   pagecolor="#ffffff"
   bordercolor="#666666"
   borderopacity="1.0"
   inkscape:pageshadow="2"
   inkscape:pageopacity="0.0"
   inkscape:pagecheckerboard="0"
   showgrid="false"
   inkscape:zoom="1.9019608"
   inkscape:cx="229.23711"
   inkscape:cy="229.5"
   inkscape:window-width="2475"
   inkscape:window-height="1376"
   inkscape:window-x="0"
   inkscape:window-y="0"
   inkscape:window-maximized="1"
   inkscape:current-layer="Layer_1" />
<g
   id="XMLID_1315_"
   style="fill:#ffffff">
	<g
   id="g8"
   style="fill:#ffffff">
		<g
   id="g6"
   style="fill:#ffffff">
			<ellipse
   cx="229.5"
   cy="161"
   rx="71.5"
   ry="84"
   id="ellipse2"
   style="fill:#ffffff" />
			<path
   d="M229.5,0C102.686,0,0,102.77,0,229.5C0,355.823,102.191,459,229.5,459C355.989,459,459,356.656,459,229.5     C459,102.82,356.396,0,229.5,0z M375.867,349.884c-8.967-44.692-39.664-82.044-81.079-101.501     C276.854,265.312,253.919,275,229.5,275c-25.083,0-47.968-10.183-65.483-26.801c-41.512,19.292-72.053,56.497-80.925,101.636     c-8.407-10.191-15.651-21.136-21.681-32.664c9.144-24.053,23.819-46.017,43.356-64.361     c12.145-11.402,25.694-20.942,40.251-28.489C133.958,205.726,128,183.829,128,161c0-63.433,45.618-114,101.5-114     C285.492,47,331,97.686,331,161c0,22.859-5.973,44.784-17.06,63.395c38.355,19.914,68.383,52.943,83.614,92.846     C391.521,328.762,384.275,339.699,375.867,349.884z"
   id="path4"
   style="fill:#ffffff" />
		</g>
	</g>
</g>
<g
   id="g11"
   style="fill:#ffffff">
</g>
<g
   id="g13"
   style="fill:#ffffff">
</g>
<g
   id="g15"
   style="fill:#ffffff">
</g>
<g
   id="g17"
   style="fill:#ffffff">
</g>
<g
   id="g19"
   style="fill:#ffffff">
</g>
<g
   id="g21"
   style="fill:#ffffff">
</g>
<g
   id="g23"
   style="fill:#ffffff">
</g>
<g
   id="g25"
   style="fill:#ffffff">
</g>
<g
   id="g27"
   style="fill:#ffffff">
</g>
<g
   id="g29"
   style="fill:#ffffff">
</g>
<g
   id="g31"
   style="fill:#ffffff">
</g>
<g
   id="g33"
   style="fill:#ffffff">
</g>
<g
   id="g35"
   style="fill:#ffffff">
</g>
<g
   id="g37"
   style="fill:#ffffff">
</g>
<g
   id="g39"
   style="fill:#ffffff">
</g>
</svg>
